<svg height="511pt" viewBox="-49 1 511 511.99964" width="511pt" xmlns="http://www.w3.org/2000/svg"><path d="m.5 352.53125v143.257812c0 8.953126 7.257812 16.210938 16.210938 16.210938h369.417968c8.953125 0 16.210938-7.257812 16.210938-16.210938v-143.390624zm0 0" fill="#5c546a"/><path d="m393.285156 361.191406h-383.726562c-6.507813 0-10.886719-6.660156-8.308594-12.636718l25.683594-59.472657c2.234375-5.175781 7.335937-8.527343 12.972656-8.527343h323.808594c5.695312 0 10.832031 3.417968 13.03125 8.671874l24.882812 59.421876c2.496094 5.960937-1.882812 12.542968-8.34375 12.542968zm0 0" fill="#868491"/><path d="m311.519531 321.964844h-220.199219v-183.710938c0-8.128906 6.589844-14.71875 14.722657-14.71875h45.328125l71.109375-9.996094 74.320312 9.996094c8.128907 0 14.71875 6.589844 14.71875 14.71875zm0 0" fill="#eff2fa"/><path d="m356.144531 110.277344-37.710937 39.335937c-11.523438 12.019531-27.457032 18.824219-44.117188 18.824219h-54.957031c-12.398437 0-22.457031-10.066406-22.457031-22.464844 0-6.203125 2.511718-11.816406 6.574218-15.890625 4.0625-4.0625 9.675782-6.574219 15.882813-6.574219h-67.988281l13.960937-14.773437 42.578125-45.035156c10.226563-10.816407 24.988282-16.136719 39.761719-14.308594l54.722656 6.730469zm0 0" fill="#fdd7bd"/><path d="m409.363281 97.523438-24.335937 24.109374c-4.925782 4.878907-12.875 4.84375-17.753906-.082031l-75.347657-76.050781c-4.878906-4.925781-4.839843-12.875.085938-17.753906l24.335937-24.109375c4.921875-4.878907 12.871094-4.84375 17.75.082031l75.347656 76.050781c4.878907 4.925781 4.84375 12.875-.082031 17.753907zm0 0" fill="#87dbff"/><path d="m405.265625 75.550781c-16.101563 15.957031-42.089844 15.835938-58.042969-.269531l-51.117187-51.59375-3.601563 3.566406c-5.195312 5.152344-5.234375 13.542969-.085937 18.742188l74.367187 75.058594c5.148438 5.199218 13.539063 5.238281 18.738282.085937l23.34375-23.128906c5.199218-5.148438 5.238281-13.539063.085937-18.738281zm0 0" fill="#6fc7ff"/><path d="m325.054688 330.117188h-247.621094c-4.371094 0-7.917969-3.539063-7.917969-7.914063 0-4.371094 3.542969-7.914063 7.917969-7.914063h247.621094c4.371093 0 7.914062 3.542969 7.914062 7.914063 0 4.375-3.542969 7.914063-7.914062 7.914063zm0 0" fill="#ff8000"/><path d="m185.066406 282.3125c-2.027344 0-4.050781-.769531-5.597656-2.316406l-29.546875-29.546875c-3.089844-3.089844-3.089844-8.101563 0-11.191407 3.089844-3.089843 8.101563-3.089843 11.191406 0l23.953125 23.949219 59.824219-59.828125c3.089844-3.089844 8.101563-3.089844 11.195313 0 3.089843 3.089844 3.089843 8.101563 0 11.191406l-65.425782 65.425782c-1.542968 1.546875-3.570312 2.316406-5.59375 2.316406zm0 0" fill="#5ed4cd"/><path d="m327.375 457.832031h-251.910156c-6.003906 0-10.871094-4.867187-10.871094-10.871093v-26.09375c0-6.003907 4.867188-10.871094 10.871094-10.871094h251.910156c6.003906 0 10.871094 4.867187 10.871094 10.871094v26.09375c0 6.003906-4.867188 10.871093-10.871094 10.871093zm0 0" fill="#868491"/><path d="m252.460938 123.507812h-101.089844l13.960937-14.773437h72.347657c8.164062 0 14.78125 6.617187 14.78125 14.773437zm0 0" fill="#fac5aa"/></svg>