<svg height="512pt" viewBox="-21 0 512 512.001" width="512pt" xmlns="http://www.w3.org/2000/svg"><path d="m253.429688 236.546875h-248.789063c-2.5625 0-4.640625-2.078125-4.640625-4.640625v-49.0625c0-2.5625 2.078125-4.640625 4.640625-4.640625h248.789063c2.5625 0 4.640624 2.078125 4.640624 4.640625v49.0625c0 2.5625-2.078124 4.640625-4.640624 4.640625zm0 0" fill="#eff2fa"/><path d="m379.414062 236.546875h-48.925781c-15.640625 0-28.320312-12.679687-28.320312-28.320313v-1.703124c0-15.640626 12.679687-28.316407 28.320312-28.316407h48.925781c15.640626 0 28.320313 12.675781 28.320313 28.316407v1.703124c0 15.640626-12.679687 28.320313-28.320313 28.320313zm0 0" fill="#87dbff"/><path d="m182.839844 396.226562c0 49.746094-40.324219 90.070313-90.070313 90.070313-49.746093 0-90.070312-40.324219-90.070312-90.070313 0-49.746093 40.324219-90.074218 90.070312-90.074218 49.746094 0 90.070313 40.328125 90.070313 90.074218zm0 0" fill="#cafff0"/><path d="m92.769531 306.152344c-7.796875 0-15.363281.992187-22.578125 2.855468 38.820313 10.019532 67.496094 45.269532 67.496094 87.21875 0 41.949219-28.675781 77.199219-67.496094 87.21875 7.214844 1.859376 14.78125 2.851563 22.578125 2.851563 49.746094 0 90.074219-40.324219 90.074219-90.070313 0-49.746093-40.328125-90.074218-90.074219-90.074218zm0 0" fill="#aaf2e4"/><path d="m92.613281 413.160156c-2.039062 0-3.996093-.808594-5.441406-2.253906l-30.941406-30.941406c-3.003907-3.003906-3.003907-7.878906 0-10.882813 3.007812-3.007812 7.878906-3.007812 10.886719 0l25.496093 25.496094 92.5625-92.5625c3.007813-3.003906 7.878907-3.003906 10.886719 0 3.007812 3.007813 3.007812 7.878906 0 10.886719l-98.003906 98.003906c-1.445313 1.445312-3.402344 2.253906-5.445313 2.253906zm0 0" fill="#5ed4cd"/><path d="m253.429688 147.441406h-248.789063c-2.5625 0-4.640625-2.078125-4.640625-4.636718v-49.0625c0-2.5625 2.078125-4.640626 4.640625-4.640626h248.789063c2.5625 0 4.640624 2.078126 4.640624 4.640626v49.0625c0 2.558593-2.078124 4.636718-4.640624 4.636718zm0 0" fill="#eff2fa"/><path d="m379.414062 147.441406h-48.925781c-15.640625 0-28.320312-12.675781-28.320312-28.316406v-1.703125c0-15.640625 12.679687-28.320313 28.320312-28.320313h48.925781c15.640626 0 28.320313 12.679688 28.320313 28.320313v1.703125c0 15.640625-12.679687 28.316406-28.320313 28.316406zm0 0" fill="#87dbff"/><path d="m44.425781 215.074219h-17.246093c-4.253907 0-7.699219-3.445313-7.699219-7.699219 0-4.25 3.445312-7.695312 7.699219-7.695312h17.246093c4.25 0 7.699219 3.445312 7.699219 7.695312 0 4.253906-3.449219 7.699219-7.699219 7.699219zm0 0" fill="#707487"/><path d="m253.429688 58.339844h-248.789063c-2.5625 0-4.640625-2.078125-4.640625-4.640625v-49.058594c0-2.5625 2.078125-4.640625 4.640625-4.640625h248.789063c2.5625 0 4.640624 2.078125 4.640624 4.640625v49.058594c0 2.5625-2.078124 4.640625-4.640624 4.640625zm0 0" fill="#eff2fa"/><path d="m379.414062 58.339844h-48.925781c-15.640625 0-28.320312-12.679688-28.320312-28.320313v-1.703125c0-15.636718 12.679687-28.316406 28.320312-28.316406h48.925781c15.640626 0 28.316407 12.679688 28.316407 28.316406v1.703125c.003906 15.640625-12.675781 28.320313-28.316407 28.320313zm0 0" fill="#87dbff"/><g fill="#6fc7ff"><path d="m378.5625 178.207031h-27.195312c16.109374 0 29.167968 13.058594 29.167968 29.167969s-13.058594 29.171875-29.167968 29.171875h27.195312c16.109375 0 29.171875-13.0625 29.171875-29.171875s-13.0625-29.167969-29.171875-29.167969zm0 0"/><path d="m378.5625 89.101562h-27.195312c16.109374 0 29.167968 13.0625 29.167968 29.171876 0 16.109374-13.058594 29.167968-29.167968 29.167968h27.195312c16.109375 0 29.171875-13.058594 29.171875-29.167968 0-16.109376-13.0625-29.171876-29.171875-29.171876zm0 0"/><path d="m378.5625 0h-27.195312c16.109374 0 29.167968 13.058594 29.167968 29.167969s-13.058594 29.171875-29.167968 29.171875h27.195312c16.109375 0 29.171875-13.0625 29.171875-29.171875s-13.0625-29.167969-29.171875-29.167969zm0 0"/></g><path d="m44.425781 125.96875h-17.246093c-4.253907 0-7.699219-3.445312-7.699219-7.695312s3.445312-7.699219 7.699219-7.699219h17.246093c4.25 0 7.699219 3.449219 7.699219 7.699219s-3.449219 7.695312-7.699219 7.695312zm0 0" fill="#707487"/><path d="m44.425781 36.867188h-17.246093c-4.253907 0-7.699219-3.445313-7.699219-7.699219 0-4.25 3.445312-7.695313 7.699219-7.695313h17.246093c4.25 0 7.699219 3.445313 7.699219 7.695313 0 4.253906-3.449219 7.699219-7.699219 7.699219zm0 0" fill="#707487"/><path d="m158.964844 215.074219h-85.667969c-4.25 0-7.695313-3.445313-7.695313-7.699219 0-4.25 3.445313-7.695312 7.695313-7.695312h85.667969c4.25 0 7.695312 3.445312 7.695312 7.695312 0 4.253906-3.445312 7.699219-7.695312 7.699219zm0 0" fill="#c7cfe2"/><path d="m136.816406 125.96875h-63.519531c-4.25 0-7.695313-3.445312-7.695313-7.695312s3.445313-7.699219 7.695313-7.699219h63.519531c4.25 0 7.695313 3.449219 7.695313 7.699219s-3.445313 7.695312-7.695313 7.695312zm0 0" fill="#c7cfe2"/><path d="m190.621094 36.867188h-117.324219c-4.25 0-7.695313-3.445313-7.695313-7.699219 0-4.25 3.445313-7.695313 7.695313-7.695313h117.324219c4.25 0 7.695312 3.445313 7.695312 7.695313 0 4.253906-3.445312 7.699219-7.695312 7.699219zm0 0" fill="#c7cfe2"/><path d="m470.285156 360.328125v86.195313c0 4.257812-.707031 8.457031-2.0625 12.429687-1.355468 3.972656-3.367187 7.71875-5.964844 11.09375-5.203124 6.730469-8.023437 15.003906-8.023437 23.511719v14.355468c0 2.261719-1.828125 4.085938-4.085937 4.085938h-97.894532c-2.257812 0-4.09375-1.824219-4.09375-4.085938v-15.207031c0-10.507812-2.371094-20.886719-6.960937-30.347656l-12.992188-26.828125-40.640625-79.84375c-3.324218-6.515625-1.539062-14.570312 4.476563-19.054688 6.578125-4.898437 15.9375-3.398437 21.089843 2.996094l28.734376 35.671875v-159.628906c0-7.65625 5.828124-14.265625 13.464843-14.726563 8.179688-.480468 15.027344 5.882813 15.242188 13.949219.890625 33.175781 1.785156 66.367188 2.675781 99.546875.011719.1875.144531.328125.308594.347656.183594.023438.378906-.132812.390625-.347656l.019531-5.550781c0-6.886719 4.339844-12.769531 10.4375-15.046875 1.980469-.738281 4.136719-1.097656 6.394531-.996094 8.628907.414063 15.28125 7.851563 15.28125 16.492188v16.925781c0 .304687.246094.5625.542969.574219.320312.019531.605469-.246094.605469-.597656 1.765625-4.421876 5.441406-7.890626 10.007812-9.359376 1.703125-.542968 3.550781-.820312 5.460938-.746093 8.710937.296875 15.484375 7.757812 15.484375 16.480469v18.636718c0 .648438.523437 1.171875 1.167968 1.171875.421876 0 .800782-.238281 1.007813-.597656 1.980469-3.40625 5.164063-6.011719 8.980469-7.234375 1.640625-.535156 3.40625-.8125 5.234375-.769531 8.648437.175781 15.710937 7.851562 15.710937 16.503906zm0 0" fill="#fdd7bd"/><path d="m344.796875 223.253906v-7.59375c0-6.371094 5.164063-11.535156 11.535156-11.535156 6.25 0 11.363281 4.976562 11.53125 11.226562l.203125 7.589844c.175782 6.546875-5.082031 11.949219-11.632812 11.949219-6.429688.003906-11.636719-5.207031-11.636719-11.636719zm0 0" fill="#fff2ea"/><path d="m449.339844 344.59375v36.433594c0 6.15625-4.988282 11.15625-11.15625 11.15625v-40.929688c0 .648438.523437 1.171875 1.167968 1.171875.421876 0 .800782-.238281 1.007813-.597656 1.980469-3.40625 5.164063-6.011719 8.980469-7.234375zm0 0" fill="#fac5aa"/><path d="m417.238281 316.886719v36.71875c0 6.167969-5 11.164062-11.15625 11.164062v-38.503906c0 .308594.246094.5625.542969.574219.320312.019531.605469-.246094.605469-.59375 1.765625-4.425782 5.441406-7.894532 10.007812-9.359375zm0 0" fill="#fac5aa"/><path d="m384.40625 293.84375v51.457031c0 6.167969-4.996094 11.15625-11.15625 11.15625v-42.015625c.011719.1875.144531.328125.308594.347656.183594.023438.378906-.132812.390625-.347656l.019531-5.550781c0-6.886719 4.339844-12.769531 10.4375-15.046875zm0 0" fill="#fac5aa"/></svg>