<svg height="512pt" viewBox="0 -43 512.001 512" width="512pt" xmlns="http://www.w3.org/2000/svg"><path d="m328.828125 87.429688c-2.832031 0-5.554687-1.5625-6.914063-4.261719-11.113281-22.152344-3.945312-49.222657 16.675782-62.96875l5.667968-3.78125c3.550782-2.367188 8.347657-1.40625 10.714844 2.144531 2.367188 3.550781 1.40625 8.347656-2.144531 10.714844l-5.667969 3.78125c-14.140625 9.425781-19.054687 27.988281-11.433594 43.175781 1.914063 3.8125.375 8.457031-3.441406 10.371094-1.109375.558593-2.292968.824219-3.457031.824219zm0 0" fill="#868491"/><path d="m485.734375 87.429688c-1.167969 0-2.347656-.265626-3.460937-.824219-3.8125-1.914063-5.351563-6.554688-3.4375-10.371094 7.621093-15.1875 2.707031-33.75-11.433594-43.175781l-5.671875-3.78125c-3.550781-2.367188-4.507813-7.164063-2.140625-10.714844 2.367187-3.550781 7.164062-4.511719 10.714844-2.144531l5.667968 3.78125c20.621094 13.746093 27.789063 40.816406 16.671875 62.964843-1.355469 2.703126-4.082031 4.265626-6.910156 4.265626zm0 0" fill="#868491"/><path d="m324.414062 160.734375h164.40625v251.390625h-164.40625zm0 0" fill="#f7cda9"/><path d="m502.578125 170.734375h-191.925781c-5.203125 0-9.417969-4.214844-9.417969-9.417969v-72.195312c0-5.203125 4.214844-9.421875 9.417969-9.421875h191.925781c5.203125 0 9.421875 4.21875 9.421875 9.421875v72.195312c0 5.203125-4.21875 9.417969-9.421875 9.417969zm0 0" fill="#e6be94"/><path d="m510.347656 427.023438h-207.550781c-.910156 0-1.652344-.738282-1.652344-1.652344v-3.003906c0-11.175782 9.066407-20.242188 20.242188-20.242188h170.371093c11.179688 0 20.242188 9.066406 20.242188 20.242188v3.003906c0 .914062-.738281 1.652344-1.652344 1.652344zm0 0" fill="#996459"/><path d="m491.148438 402.125h-31.9375c11.515624 0 20.851562 9.335938 20.851562 20.855469v2.34375c0 .9375-.761719 1.699219-1.699219 1.699219h31.933594c.941406 0 1.703125-.761719 1.703125-1.699219v-2.34375c0-11.519531-9.335938-20.855469-20.851562-20.855469zm0 0" fill="#8c5851"/><path d="m436.851562 140.421875h-60.46875c-8.148437 0-14.757812-6.609375-14.757812-14.757813v-.890624c0-8.152344 6.609375-14.757813 14.757812-14.757813h60.46875c8.148438 0 14.753907 6.605469 14.753907 14.757813v.890624c0 8.148438-6.605469 14.757813-14.753907 14.757813zm0 0" fill="#996459"/><path d="m374.066406 21.394531-9.386718 5.421875c-5.335938 3.078125-12.15625 1.25-15.234376-4.082031l-.335937-.582031c-3.082031-5.335938-1.253906-12.15625 4.082031-15.234375l9.386719-5.421875c5.332031-3.078125 12.152344-1.25 15.234375 4.082031l.335938.582031c3.078124 5.335938 1.253906 12.15625-4.082032 15.234375zm0 0" fill="#5c546a"/><path d="m440.492188 21.394531 9.390624 5.421875c5.332032 3.078125 12.152344 1.25 15.230469-4.082031l.339844-.582031c3.078125-5.335938 1.25-12.15625-4.082031-15.234375l-9.390625-5.421875c-5.332031-3.078125-12.152344-1.25-15.234375 4.082031l-.335938.582031c-3.078125 5.335938-1.25 12.15625 4.082032 15.234375zm0 0" fill="#5c546a"/><path d="m184.589844 87.429688c-1.167969 0-2.347656-.265626-3.460938-.824219-3.8125-1.914063-5.355468-6.554688-3.441406-10.371094 7.625-15.1875 2.710938-33.75-11.429688-43.175781l-5.671874-3.78125c-3.550782-2.367188-4.507813-7.164063-2.140626-10.714844 2.367188-3.550781 7.164063-4.511719 10.710938-2.144531l5.671875 3.78125c20.621094 13.746093 27.789063 40.816406 16.671875 62.964843-1.355469 2.703126-4.082031 4.265626-6.910156 4.265626zm0 0" fill="#868491"/><path d="m27.679688 87.429688c-2.828126 0-5.554688-1.5625-6.910157-4.261719-11.117187-22.152344-3.949219-49.222657 16.671875-62.96875l5.671875-3.78125c3.550781-2.367188 8.347657-1.40625 10.710938 2.144531 2.367187 3.550781 1.410156 8.347656-2.140625 10.714844l-5.671875 3.78125c-14.140625 9.425781-19.054688 27.988281-11.433594 43.175781 1.914063 3.8125.375 8.457031-3.4375 10.371094-1.113281.558593-2.292969.824219-3.460937.824219zm0 0" fill="#868491"/><path d="m23.265625 160.734375h164.410156v251.390625h-164.410156zm0 0" fill="#f7cda9"/><path d="m201.433594 170.734375h-191.925782c-5.203124 0-9.4218745-4.214844-9.4218745-9.417969v-72.195312c0-5.203125 4.2187505-9.421875 9.4218745-9.421875h191.925782c5.203125 0 9.421875 4.21875 9.421875 9.421875v72.195312c0 5.203125-4.21875 9.417969-9.421875 9.417969zm0 0" fill="#e6be94"/><path d="m23.265625 170.734375v28.464844c73.683594 0 133.414063 59.734375 133.414063 133.414062v69.511719h30.992187v-231.390625zm0 0" fill="#ddb08c"/><path d="m324.414062 170.734375v28.464844c73.679688 0 133.410157 59.734375 133.410157 133.414062v69.511719h30.996093v-231.390625zm0 0" fill="#ddb08c"/><path d="m209.203125 427.023438h-207.550781c-.914063 0-1.652344-.738282-1.652344-1.652344v-3.003906c0-11.175782 9.0625-20.242188 20.242188-20.242188h170.371093c11.179688 0 20.242188 9.066406 20.242188 20.242188v3.003906c0 .914062-.742188 1.652344-1.652344 1.652344zm0 0" fill="#996459"/><path d="m190.003906 402.125h-34.683594c11.515626 0 20.851563 9.335938 20.851563 20.855469v2.34375c0 .9375-.761719 1.699219-1.703125 1.699219h34.683594c.941406 0 1.703125-.761719 1.703125-1.699219v-2.34375c0-11.519531-9.335938-20.855469-20.851563-20.855469zm0 0" fill="#8c5851"/><path d="m135.703125 140.421875h-60.464844c-8.152343 0-14.757812-6.609375-14.757812-14.757813v-.890624c0-8.152344 6.605469-14.757813 14.757812-14.757813h60.464844c8.152344 0 14.757813 6.605469 14.757813 14.757813v.890624c0 8.148438-6.605469 14.757813-14.757813 14.757813zm0 0" fill="#996459"/><path d="m72.921875 21.394531-9.390625 5.421875c-5.332031 3.078125-12.152344 1.25-15.230469-4.082031l-.339843-.582031c-3.078126-5.335938-1.25-12.15625 4.082031-15.234375l9.390625-5.421875c5.332031-3.078125 12.152344-1.25 15.230468 4.082031l.339844.582031c3.078125 5.335938 1.25 12.15625-4.082031 15.234375zm0 0" fill="#5c546a"/><path d="m139.347656 21.394531 9.386719 5.421875c5.335937 3.078125 12.15625 1.25 15.234375-4.082031l.335938-.582031c3.082031-5.335938 1.253906-12.15625-4.082032-15.234375l-9.386718-5.421875c-5.332032-3.078125-12.152344-1.25-15.234376 4.082031l-.335937.582031c-3.078125 5.335938-1.253906 12.15625 4.082031 15.234375zm0 0" fill="#5c546a"/><path d="m360.382812 360.089844h-208.765624c-16.027344 0-29.023438-12.996094-29.023438-29.027344v-89.261719c0-16.03125 12.996094-29.027343 29.023438-29.027343h208.765624c16.027344 0 29.023438 12.996093 29.023438 29.027343v89.261719c0 16.03125-12.996094 29.027344-29.023438 29.027344zm0 0" fill="#937de2"/><g fill="#fff"><path d="m200.328125 256.324219c0-1.730469 1.082031-3.230469 3.25-4.496094 2.164063-1.265625 4.410156-1.902344 6.746094-1.902344 2.863281 0 4.5625.96875 5.097656 2.898438l13.992187 51.277343 13.890626-51.277343c.535156-1.929688 2.234374-2.898438 5.097656-2.898438 2.332031 0 4.582031.636719 6.746094 1.902344 2.164062 1.265625 3.25 2.765625 3.25 4.496094 0 .199219-.066407.566406-.199219 1.097656l-18.59375 60.972656c-.53125 1.664063-1.746094 2.945313-3.644531 3.847657-1.902344.898437-4.085938 1.347656-6.550782 1.347656s-4.644531-.449219-6.546875-1.347656c-1.898437-.902344-3.113281-2.183594-3.644531-3.847657l-18.691406-60.972656c-.132813-.53125-.199219-.898437-.199219-1.097656zm0 0"/><path d="m260.699219 310.996094c0-1.863282.683593-3.730469 2.046875-5.597656 1.367187-1.863282 2.949218-2.796876 4.746094-2.796876 1 0 2.117187.402344 3.351562 1.210938 1.230469.808594 2.363281 1.703125 3.394531 2.6875 1.035157.984375 2.484375 1.878906 4.351563 2.683594 1.863281.808594 3.828125 1.214844 5.894531 1.214844 2.601563 0 4.863281-.550782 6.796875-1.652344 1.933594-1.097656 2.898438-2.746094 2.898438-4.945313s-1.082032-4.132812-3.25-5.796875c-2.164063-1.664062-4.796876-3.179687-7.894532-4.546875-3.097656-1.367187-6.214844-2.898437-9.347656-4.597656s-5.78125-4.113281-7.945312-7.246094c-2.167969-3.132812-3.25-6.863281-3.25-11.195312 0-7.0625 2.5-12.34375 7.496093-15.84375 5-3.496094 11.027344-5.246094 18.09375-5.246094 1.730469 0 3.546875.101563 5.445313.308594 1.898437.207031 4.03125.601562 6.398437 1.183593 2.363281.585938 4.296875 1.527344 5.796875 2.832032 1.5 1.304687 2.25 2.882812 2.25 4.734375 0 1.765625-.550781 3.589843-1.652344 5.488281-1.097656 1.894531-2.613281 2.84375-4.546874 2.84375-.796876 0-2.496094-.632812-5.097657-1.898438-2.597656-1.265624-5.460937-1.902343-8.59375-1.902343-3.335937 0-5.832031.585937-7.496093 1.75-1.667969 1.167969-2.5 2.582031-2.5 4.25 0 1.53125.78125 2.933593 2.347656 4.195312 1.566406 1.269531 3.515625 2.351563 5.847656 3.25 2.332031.898438 4.878906 2.066407 7.648438 3.5 2.761718 1.433594 5.3125 2.996094 7.644531 4.695313 2.332031 1.699218 4.28125 4.085937 5.847656 7.148437 1.5625 3.066407 2.347656 6.5625 2.347656 10.492188 0 6.871093-2.296875 12.222656-6.894531 16.050781s-10.628906 5.738281-18.09375 5.738281c-6.460938 0-12.09375-1.332031-16.890625-3.996093-4.792969-2.664063-7.191406-5.664063-7.191406-8.996094zm0 0"/></g></svg>