<?xml version="1.0" encoding="iso-8859-1"?>
<!-- Generator: Adobe Illustrator 19.0.0, SVG Export Plug-In . SVG Version: 6.00 Build 0)  -->
<svg xmlns="http://www.w3.org/2000/svg" xmlns:xlink="http://www.w3.org/1999/xlink" version="1.1" id="Layer_1" x="0px" y="0px" viewBox="0 0 512 512" style="enable-background:new 0 0 512 512;" xml:space="preserve" width="512" height="512">
<g id="XMLID_2220_">
	<g id="XMLID_2221_">
		<g id="XMLID_2222_">
			<g id="XMLID_2223_">
				<path id="XMLID_2380_" style="fill:#38627C;" d="M312.067,317.774H199.933c-56.449,0-102.209-45.761-102.209-102.209v-46.911      h316.552v46.911C414.276,272.013,368.515,317.774,312.067,317.774z"/>
				<path id="XMLID_2227_" style="fill:#22536B;" d="M414.28,168.65v46.91c0,56.45-45.76,102.21-102.21,102.21h-25.46      c56.45,0,102.21-45.76,102.21-102.21v-46.91H414.28z"/>
				<g id="XMLID_2228_">
					<circle id="XMLID_2376_" style="fill:#FEDFC5;" cx="175.319" cy="156.669" r="23.461"/>
				</g>
				<g id="XMLID_2229_">
					<circle id="XMLID_2374_" style="fill:#FEDFC5;" cx="336.681" cy="156.669" r="23.461"/>
				</g>
				<path id="XMLID_2372_" style="fill:#FEDFC5;" d="M302.84,277.39h-93.68c-14.305,0-25.902-11.597-25.902-25.902V114.2h145.485      v137.288C328.742,265.793,317.146,277.39,302.84,277.39z"/>
				<rect id="XMLID_2371_" x="183.258" y="114.2" style="fill:#C97F4C;" width="145.485" height="69.718"/>
				<path id="XMLID_2230_" style="fill:#FD6096;" d="M269.316,240.14h-26.632c-3.528,0-6.295-3.03-5.975-6.543l4.453-48.985      c0.698-7.674,7.132-13.551,14.838-13.551h0c7.706,0,14.141,5.876,14.838,13.551l4.453,48.985      C275.611,237.111,272.844,240.14,269.316,240.14z"/>
				<path id="XMLID_2233_" style="fill:#618BAA;" d="M443.91,313.46v170.46H68.09V313.46c0-29.54,23.93-53.48,53.47-53.48h63.13      c3.51,10.13,13.14,17.41,24.47,17.41h93.68c11.33,0,20.96-7.28,24.47-17.41h63.13C419.98,259.98,443.91,283.92,443.91,313.46z"/>
				<path id="XMLID_2236_" style="fill:#4E7693;" d="M401.82,331.8v152.12h-291.2V331.8c0-12.84,10.45-23.29,23.3-23.29h244.61      C391.37,308.51,401.82,318.96,401.82,331.8z"/>
				<path id="XMLID_2239_" style="fill:#4E7693;" d="M340.8,259.98c-3.88,17.38-19.42,30.41-37.96,30.41h-93.68      c-18.54,0-34.08-13.03-37.96-30.41h13.49c3.51,10.13,13.14,17.41,24.47,17.41h93.68c11.33,0,20.96-7.28,24.47-17.41H340.8z"/>
				<path id="XMLID_2242_" style="fill:#4E7693;" d="M443.914,313.461v170.462h-25.366V313.461      c0-29.537-23.936-53.482-53.472-53.482h25.366C419.979,259.978,443.914,283.924,443.914,313.461z"/>
				<g id="XMLID_2243_">
					<path id="XMLID_2355_" style="fill:#E3F4FF;" d="M378.53,504.5H133.916c-5.684,0-10.292-4.608-10.292-10.292V331.799       c0-5.684,4.608-10.292,10.292-10.292H378.53c5.684,0,10.292,4.608,10.292,10.292v162.408       C388.822,499.892,384.214,504.5,378.53,504.5z"/>
					<path id="XMLID_2247_" style="fill:#BDDFF4;" d="M388.82,331.8v162.41c0,5.68-4.61,10.29-10.29,10.29h-23.11       c5.68,0,10.29-4.61,10.29-10.29V331.8c0-5.69-4.61-10.29-10.29-10.29h23.11C384.21,321.51,388.82,326.11,388.82,331.8z"/>
				</g>
				<path id="XMLID_2250_" style="fill:#618BAA;" d="M414.276,169.969v38.017c-25.691-12.014-86.875-78.565-158.276-78.565      s-132.585,66.551-158.276,78.565v-38.017c0-12.898,3.215-25.603,9.447-36.895C136.642,79.671,192.256,7.5,256,7.5      s119.358,72.171,148.829,125.574C411.061,144.367,414.276,157.072,414.276,169.969z"/>
				<path id="XMLID_2253_" style="fill:#4E7693;" d="M414.28,169.97v38.02c-6.41-3-15.03-9.39-25.46-17.3v-17.72      c0-12.9-3.21-25.6-9.45-36.9C350.3,83.4,295.8,12.46,233.14,10.54C240.62,8.57,248.25,7.5,256,7.5      c63.74,0,119.36,72.17,148.83,125.57C411.06,144.37,414.28,157.07,414.28,169.97z"/>
			</g>
		</g>
		<g id="XMLID_2254_">
			<path id="XMLID_2255_" style="fill:#FD6096;" d="M290.326,407.326C290.326,388.368,274.958,373,256,373h0     c-18.958,0-34.326,15.368-34.326,34.326v17.267c0,2.799,2.269,5.068,5.068,5.068h11.217c1.337,0,2.422,1.084,2.422,2.422v12.196     c0,1.337,1.084,2.422,2.422,2.422h26.395c1.337,0,2.422-1.084,2.422-2.422v-12.196c0-1.337,1.084-2.422,2.422-2.422h11.217     c2.799,0,5.068-2.269,5.068-5.068V407.326z"/>
		</g>
	</g>
	<g id="XMLID_2256_">
		<path id="XMLID_2257_" d="M413.643,257.082c5.396-13.155,8.133-27.088,8.133-41.517c0,0-0.015-47.312-0.03-47.51    c-0.308-13.543-3.865-26.851-10.351-38.604c-10.489-19.007-32.611-55.269-62.915-84.58C317.699,15.097,286.583,0,256,0    c-29.696,0-59.934,14.26-89.873,42.385c-3.019,2.836-3.167,7.583-0.331,10.602c2.836,3.019,7.582,3.167,10.602,0.331    C203.464,27.892,230.246,15,256,15c26.558,0,54.164,13.677,82.052,40.652c28.896,27.95,50.127,62.775,60.21,81.046    c5.57,10.093,8.514,21.599,8.514,33.272v24.66c-4.772-3.343-10.25-7.499-16.158-11.982c-15.78-11.973-35.558-26.971-58.127-39.069    c-0.115-0.066-0.231-0.13-0.35-0.19c-22.928-12.243-48.724-21.467-76.142-21.467c-54.582,0-102.747,36.544-134.618,60.727    c-5.909,4.483-11.386,8.639-16.158,11.982v-24.66c0-11.673,2.944-23.179,8.514-33.271c8.18-14.823,21.714-37.057,39.733-58.807    c2.643-3.189,2.199-7.917-0.991-10.56c-3.188-2.643-7.917-2.2-10.56,0.991c-18.764,22.648-32.824,45.743-41.315,61.129    c-6.485,11.753-10.043,25.061-10.351,38.604c-0.016,0.198-0.03,47.51-0.03,47.51c0,14.429,2.737,28.362,8.133,41.517    c-22.146,9.149-37.774,30.97-37.774,56.381v170.463c0,4.142,3.358,7.5,7.5,7.5s7.5-3.358,7.5-7.5V313.463    c0-25.354,20.626-45.98,45.979-45.98h58.284c5.677,10.363,16.688,17.407,29.315,17.407h93.68c12.626,0,23.637-7.044,29.315-17.407    h58.284c25.353,0,45.979,20.626,45.979,45.98v56.276c0,4.142,3.358,7.5,7.5,7.5s7.5-3.358,7.5-7.5v-56.276    C451.417,288.052,435.789,266.231,413.643,257.082z M336.242,162.989c3.464,2.074,6.853,4.199,10.16,6.354    c-2.736,2.108-6.116,3.286-9.721,3.286c-0.147,0-0.292-0.011-0.439-0.015V162.989z M321.242,154.657v21.76h-44.974    c-3.58-7.67-11.303-12.856-20.269-12.856s-16.688,5.186-20.269,12.856h-44.974v-21.76c20.161-10.281,42.293-17.736,65.242-17.736    S301.082,144.376,321.242,154.657z M248.631,185.291c0.349-3.837,3.517-6.73,7.369-6.73s7.021,2.893,7.369,6.73l4.304,47.349    h-23.347L248.631,185.291z M175.758,172.616c-0.146,0.004-0.292,0.014-0.439,0.014c-3.56,0-6.955-1.188-9.706-3.296    c3.302-2.152,6.686-4.274,10.145-6.344V172.616z M121.562,252.483c-2.92,0-5.79,0.219-8.602,0.618    c-5.13-11.845-7.737-24.452-7.737-37.536v-3.069c6.9-3.998,15.196-10.29,25.225-17.899c6.751-5.123,14.277-10.829,22.438-16.605    c5.797,6.101,13.867,9.637,22.432,9.637c0.147,0,0.292-0.012,0.439-0.014v63.872c0,0.334,0.016,0.664,0.025,0.996H121.562z     M302.84,269.89h-93.68c-10.147,0-18.402-8.255-18.402-18.402v-60.07h42.254l-3.773,41.501c-0.342,3.768,0.924,7.532,3.476,10.325    c2.551,2.794,6.185,4.396,9.968,4.396h26.633c3.784,0,7.417-1.603,9.968-4.396c2.552-2.793,3.818-6.557,3.476-10.326l-3.773-41.5    h42.254v60.07C321.242,261.634,312.987,269.89,302.84,269.89z M336.217,252.483c0.01-0.332,0.025-0.662,0.025-0.996v-63.873    c0.147,0.002,0.292,0.015,0.439,0.015c8.526,0,16.634-3.588,22.421-9.645c8.166,5.778,15.695,11.488,22.45,16.613    c10.028,7.609,18.324,13.901,25.225,17.899v3.069c0,13.084-2.606,25.69-7.736,37.536c-2.812-0.399-5.682-0.618-8.602-0.618    H336.217z"/>
		<path id="XMLID_2266_" d="M443.917,396.761c-4.142,0-7.5,3.358-7.5,7.5v79.665c0,4.142,3.358,7.5,7.5,7.5s7.5-3.358,7.5-7.5    v-79.665C451.417,400.119,448.06,396.761,443.917,396.761z"/>
		<path id="XMLID_2267_" d="M378.529,314.007H208.261c-4.142,0-7.5,3.358-7.5,7.5s3.358,7.5,7.5,7.5h170.268    c1.54,0,2.792,1.253,2.792,2.792v162.408c0,1.54-1.253,2.792-2.792,2.792H133.916c-1.54,0-2.792-1.253-2.792-2.792V331.799    c0-1.54,1.253-2.792,2.792-2.792h39.823c4.142,0,7.5-3.358,7.5-7.5s-3.358-7.5-7.5-7.5h-39.823    c-9.811,0-17.792,7.981-17.792,17.792v162.408c0,9.811,7.981,17.792,17.792,17.792h244.613c9.811,0,17.792-7.981,17.792-17.792    V331.799C396.322,321.988,388.34,314.007,378.529,314.007z"/>
		<path id="XMLID_2268_" d="M242.802,454.2h26.396c5.471,0,9.921-4.451,9.921-9.922v-7.117h6.139c6.93,0,12.568-5.638,12.568-12.568    v-17.267c0-23.063-18.763-41.826-41.826-41.826s-41.826,18.763-41.826,41.826v17.267c0,6.93,5.638,12.568,12.568,12.568h6.139    v7.117C232.881,449.749,237.332,454.2,242.802,454.2z M229.174,422.161v-14.835c0-14.792,12.034-26.826,26.826-26.826    s26.826,12.034,26.826,26.826v14.835h-8.785c-5.471,0-9.922,4.451-9.922,9.922v7.117h-16.238v-7.117    c0-5.471-4.451-9.922-9.922-9.922H229.174z"/>
	</g>
</g>















</svg>
