<svg height="512pt" viewBox="0 -3 512 512" width="512pt" xmlns="http://www.w3.org/2000/svg"><path d="m406.585938 505.859375h-301.171876v-.835937c0-15.28125 12.390626-27.667969 27.667969-27.667969h245.835938c15.28125 0 27.667969 12.386719 27.667969 27.667969zm0 0" fill="#5c546a"/><path d="m86.019531 207.589844-10.207031 14.105468-61.617188 94.207032c-1.480468 2.269531-3.957031 3.492187-6.480468 3.492187-1.441406 0-2.914063-.410156-4.210938-1.253906-3.5742185-2.339844-4.574218-7.128906-2.246094-10.707031l66.28125-99.824219 9.230469-14.101563zm0 0" fill="#eff2fa"/><path d="m148.984375 319.027344c-1.308594.855468-2.78125 1.265625-4.234375 1.265625-2.523438 0-4.984375-1.226563-6.46875-3.492188l-62.46875-95.105469-8.273438-14.082031 9.230469-14.105469 9.25 14.085938 65.179688 100.730469c2.339843 3.5625 1.351562 8.351562-2.214844 10.703125zm0 0" fill="#eff2fa"/><path d="m256 456.582031c-4.265625 0-7.726562-3.460937-7.726562-7.726562v-416.871094c0-4.265625 3.460937-7.726563 7.726562-7.726563s7.726562 3.460938 7.726562 7.726563v416.871094c0 4.265625-3.460937 7.726562-7.726562 7.726562zm0 0" fill="#868491"/><path d="m105.394531 361.054688h-58.324219c-25.996093 0-47.070312-21.074219-47.070312-47.070313v-1.449219c0-.476562.386719-.863281.867188-.863281h150.734374c.476563 0 .867188.386719.867188.863281v1.449219c0 25.996094-21.078125 47.070313-47.074219 47.070313zm0 0" fill="#ffd782"/><path d="m151.574219 311.671875h-42.464844c.492187 0 .894531.398437.894531.890625 0 26.78125-21.710937 48.492188-48.492187 48.492188h42.464843c26.78125 0 48.492188-21.710938 48.492188-48.492188 0-.492188-.402344-.890625-.894531-.890625zm0 0" fill="#ffc36f"/><path d="m256.464844 31.984375h-.929688c-8.492187 0-15.378906-6.886719-15.378906-15.378906v-1.226563c0-8.492187 6.886719-15.378906 15.378906-15.378906h.929688c8.492187 0 15.378906 6.886719 15.378906 15.378906v1.226563c0 8.492187-6.886719 15.378906-15.378906 15.378906zm0 0" fill="#5ed4cd"/><path d="m333.902344 477.359375-77.902344 10-77.902344-10v-.835937c0-15.28125 12.386719-27.667969 27.667969-27.667969h100.46875c15.28125 0 27.667969 12.386719 27.667969 27.667969zm0 0" fill="#5c546a"/><path d="m305.578125 448.859375c.046875.050781.09375.105469.136719.15625 6.613281 7.335937 1.214844 19.070313-8.660156 19.070313h-117.40625c-1 2.910156-1.550782 6.023437-1.550782 9.273437h155.804688c0-15.683594-12.664063-28.402344-28.324219-28.5zm0 0" fill="#4f495b"/><path d="m342.164062 70.222656h-172.328124c-51.695313 0-93.601563 41.90625-93.601563 93.601563v32.667969c17.746094 0 32.136719-14.390626 32.136719-32.136719v-.773438c0-35.253906 28.578125-63.828125 63.828125-63.828125 20.230469 0 39.628906 8.035156 53.933593 22.339844l4.082032 3.917969c14.203125 13.636719 36.800781 13.074219 50.304687-1.253907l2.511719-2.664062c14.304688-14.304688 33.707031-22.339844 53.933594-22.339844h2.835937c35.25 0 63.828125 28.574219 63.828125 63.828125v.773438c0 17.75 14.386719 32.136719 32.136719 32.136719v-32.667969c0-51.695313-41.90625-93.601563-93.601563-93.601563zm0 0" fill="#d7deed"/><path d="m263.726562 100.828125c0 4.265625-3.460937 7.726563-7.726562 7.726563s-7.726562-3.460938-7.726562-7.726563c0-4.269531 3.460937-7.726563 7.726562-7.726563s7.726562 3.457032 7.726562 7.726563zm0 0" fill="#5c546a"/><path d="m86.019531 196.417969c0 4.480469-3.632812 8.113281-8.113281 8.113281s-8.113281-3.632812-8.113281-8.113281 3.632812-8.113281 8.113281-8.113281 8.113281 3.632812 8.113281 8.113281zm0 0" fill="#5c546a"/><path d="m445.554688 207.589844-10.210938 14.105468-61.613281 94.207032c-1.484375 2.269531-3.957031 3.492187-6.480469 3.492187-1.441406 0-2.914062-.410156-4.214844-1.253906-3.574218-2.339844-4.574218-7.128906-2.246094-10.707031l66.28125-99.824219 9.230469-14.101563zm0 0" fill="#eff2fa"/><path d="m508.519531 319.027344c-1.308593.855468-2.785156 1.265625-4.234375 1.265625-2.523437 0-4.988281-1.226563-6.472656-3.492188l-62.46875-95.105469-8.273438-14.082031 9.230469-14.105469 9.253907 14.085938 65.179687 100.730469c2.335937 3.5625 1.347656 8.351562-2.214844 10.703125zm0 0" fill="#eff2fa"/><path d="m464.929688 361.054688h-58.324219c-25.996094 0-47.074219-21.074219-47.074219-47.070313v-1.449219c0-.476562.390625-.863281.867188-.863281h150.734374c.480469 0 .867188.386719.867188.863281v1.449219c0 25.996094-21.074219 47.070313-47.070312 47.070313zm0 0" fill="#ffd782"/><path d="m511.105469 311.671875h-37.667969c.492188 0 .890625.398437.890625.890625 0 26.78125-21.710937 48.492188-48.492187 48.492188h37.671874c26.78125 0 48.492188-21.710938 48.492188-48.492188 0-.492188-.398438-.890625-.894531-.890625zm0 0" fill="#ffc36f"/><path d="m445.554688 196.417969c0 4.480469-3.632813 8.113281-8.113282 8.113281-4.480468 0-8.113281-3.632812-8.113281-8.113281s3.632813-8.113281 8.113281-8.113281c4.480469 0 8.113282 3.632812 8.113282 8.113281zm0 0" fill="#5c546a"/></svg>