<svg height="512pt" viewBox="0 -47 512 512" width="512pt" xmlns="http://www.w3.org/2000/svg"><path d="m512 90.015625v3.761719c0 22.460937-18.214844 40.667968-40.675781 40.667968h-298.925781v-85.09375h298.925781c22.460937 0 40.675781 18.203126 40.675781 40.664063zm0 0" fill="#cafff0"/><path d="m512 324.742188v3.765624c0 22.460938-18.214844 40.664063-40.675781 40.664063h-298.925781v-85.09375h298.925781c22.460937 0 40.675781 18.203125 40.675781 40.664063zm0 0" fill="#c7f1ff"/><path d="m172.398438 49.351562h128.140624v85.09375h-128.140624zm0 0" fill="#5ed4cd"/><path d="m236.359375 49.351562-63.960937 73.671876v-23.574219l43.5-50.097657zm0 0" fill="#34b7b1"/><path d="m284.28125 49.351562-72.773438 85.09375h-20.347656l72.773438-85.09375zm0 0" fill="#34b7b1"/><path d="m300.539062 61.175781v24.097657l-41.128906 49.171874h-20.171875zm0 0" fill="#34b7b1"/><path d="m172.398438 284.078125h182.371093v85.09375h-182.371093zm0 0" fill="#57afff"/><g fill="#3a85dd"><path d="m290.425781 284.078125-73.703125 85.09375h-20.460937l73.703125-85.09375zm0 0"/><path d="m242.917969 284.078125-70.519531 81.464844v-23.628907l50.066406-57.835937zm0 0"/><path d="m338.628906 284.078125-73.035156 85.09375h-20.378906l73.035156-85.09375zm0 0"/><path d="m354.769531 295.910156v24.089844l-41.128906 49.171875h-20.164063zm0 0"/></g><path d="m183.796875 91.898438c0 28.597656-13.058594 54.144531-33.535156 70.988281v.011719c-15.875 13.058593-36.203125 20.898437-58.363281 20.898437-22.160157 0-42.476563-7.839844-58.359376-20.910156-20.480468-16.84375-33.539062-42.390625-33.539062-70.988281 0-50.75 41.148438-91.898438 91.898438-91.898438 50.757812 0 91.898437 41.148438 91.898437 91.898438zm0 0" fill="#cafff0"/><path d="m91.898438 0c-6.722657 0-13.273438.730469-19.585938 2.097656 41.347656 8.976563 72.3125 45.773438 72.3125 89.800782 0 28.597656-13.058594 54.144531-33.535156 70.988281v.011719c-11.058594 9.097656-24.28125 15.652343-38.777344 18.796874 6.3125 1.371094 12.863281 2.101563 19.585938 2.101563 22.160156 0 42.488281-7.839844 58.359374-20.898437v-.011719c20.480469-16.84375 33.539063-42.390625 33.539063-70.988281 0-50.75-41.140625-91.898438-91.898437-91.898438zm0 0" fill="#aaf2e4"/><path d="m150.257812 162.886719v.011719c-15.871093 13.058593-36.199218 20.898437-58.359374 20.898437-22.160157 0-42.476563-7.839844-58.363282-20.910156 3.699219-10.730469 8.695313-18.105469 11.929688-20.660157 2.890625-2.285156 6.1875-4.097656 9.800781-5.316406l10.503906-3.539062c2.371094-.796875 4.472657-2.058594 6.234375-3.6875l.007813-.007813c3.417969-3.195312 5.492187-7.734375 5.492187-12.640625v-14.601562h28.800782v14.601562c0 4.550782 1.769531 8.789063 4.765624 11.929688h.011719v.007812c1.875 1.964844 4.25 3.507813 6.953125 4.402344l10.503906 3.535156c11.671876 3.914063 19.972657 14.050782 21.71875 25.976563zm0 0" fill="#fac5aa"/><path d="m120.03125 50.5625v34.910156c0 5.261719-2.75 10.144532-7.234375 12.882813l-13.058594 7.949219c-4.808593 2.933593-10.859375 2.933593-15.679687 0l-13.046875-7.949219c-4.496094-2.738281-7.246094-7.621094-7.246094-12.882813v-34.910156c0-9.59375 7.785156-17.371094 17.382813-17.371094h21.5c9.597656 0 17.382812 7.777344 17.382812 17.371094zm0 0" fill="#fdd7bd"/><path d="m120.03125 50.5625v16.21875l-37.308594-11.992188-18.960937 9.878907v-14.105469c0-9.59375 7.789062-17.371094 17.382812-17.371094h21.503907c9.597656 0 17.382812 7.777344 17.382812 17.371094zm0 0" fill="#5c546a"/><path d="m150.257812 162.886719v.011719c-15.871093 13.058593-36.199218 20.898437-58.359374 20.898437-22.160157 0-42.476563-7.839844-58.363282-20.910156 3.699219-10.730469 8.695313-18.105469 11.929688-20.660157 2.890625-2.285156 6.1875-4.097656 9.800781-5.316406l10.503906-3.539062c2.371094-.796875 4.472657-2.058594 6.234375-3.6875l.007813-.007813c5.640625 2.046875 12.261719 3.425781 19.765625 3.265625 7.398437-.164062 13.859375-1.78125 19.304687-3.96875 1.875 1.964844 4.25 3.503906 6.953125 4.398438l10.503906 3.539062c11.671876 3.914063 19.972657 14.050782 21.71875 25.976563zm0 0" fill="#5ed4cd"/><path d="m183.796875 326.625c0 50.753906-41.144531 91.898438-91.898437 91.898438-50.753907 0-91.898438-41.144532-91.898438-91.898438s41.144531-91.898438 91.898438-91.898438c50.753906 0 91.898437 41.144532 91.898437 91.898438zm0 0" fill="#c7f1ff"/><path d="m91.898438 234.726562c-7.703126 0-15.183594.953126-22.335938 2.738282 39.960938 9.976562 69.566406 46.109375 69.566406 89.160156s-29.605468 79.179688-69.566406 89.15625c7.152344 1.785156 14.632812 2.742188 22.335938 2.742188 50.753906 0 91.898437-41.144532 91.898437-91.898438s-41.144531-91.898438-91.898437-91.898438zm0 0" fill="#87dbff"/><path d="m150.257812 397.613281v.011719c-15.871093 13.058594-36.199218 20.898438-58.359374 20.898438-22.160157 0-42.476563-7.839844-58.363282-20.910157 3.699219-10.730469 8.695313-18.105469 11.929688-20.660156 2.890625-2.285156 6.1875-4.097656 9.800781-5.316406l10.503906-3.535157c2.371094-.800781 4.472657-2.0625 6.234375-3.691406l.007813-.007812c3.417969-3.191406 5.492187-7.734375 5.492187-12.640625v-14.601563h28.800782v14.601563c0 4.550781 1.769531 8.789062 4.765624 11.925781h.011719v.011719c1.875 1.960937 4.25 3.503906 6.953125 4.398437l10.503906 3.539063c11.671876 3.914062 19.972657 14.050781 21.71875 25.976562zm0 0" fill="#fac5aa"/><path d="m120.03125 285.289062v34.910157c0 5.261719-2.75 10.144531-7.234375 12.886719l-13.058594 7.945312c-4.808593 2.933594-10.859375 2.933594-15.679687 0l-13.046875-7.945312c-4.496094-2.742188-7.246094-7.625-7.246094-12.886719v-34.910157c0-9.59375 7.785156-17.371093 17.382813-17.371093h21.5c9.597656 0 17.382812 7.773437 17.382812 17.371093zm0 0" fill="#fdd7bd"/><path d="m120.03125 285.289062v16.222657l-37.308594-11.992188-18.957031 9.878907v-14.109376c0-9.59375 7.785156-17.371093 17.382813-17.371093h21.5c9.597656 0 17.382812 7.773437 17.382812 17.371093zm0 0" fill="#5c546a"/><path d="m150.257812 397.613281v.011719c-15.871093 13.058594-36.199218 20.898438-58.359374 20.898438-22.160157 0-42.476563-7.839844-58.363282-20.910157 3.699219-10.730469 8.695313-18.105469 11.929688-20.660156 2.890625-2.285156 6.1875-4.097656 9.800781-5.316406l10.503906-3.535157c2.371094-.800781 4.472657-2.0625 6.234375-3.691406l.007813-.007812c5.640625 2.046875 12.261719 3.425781 19.765625 3.265625 7.398437-.160157 13.859375-1.777344 19.304687-3.96875 1.875 1.964843 4.25 3.503906 6.953125 4.402343l10.503906 3.535157c11.671876 3.914062 19.972657 14.050781 21.71875 25.976562zm0 0" fill="#57afff"/></svg>