<svg height="512pt" viewBox="0 0 512 512" width="512pt" xmlns="http://www.w3.org/2000/svg"><path d="m239.890625 191.539062v-58.949218c-77.117187 0-139.625 62.511718-139.625 139.617187 0 56.554688 33.621094 105.253907 81.980469 127.207031l24.335937-53.707031c-27.9375-12.675781-47.371093-40.816406-47.371093-73.503906 0-44.546875 36.117187-80.664063 80.679687-80.664063zm0 0" fill="#5ed4cd"/><path d="m379.503906 272.207031h-58.945312c0-44.550781-36.121094-80.671875-80.667969-80.671875v-58.945312c77.113281 0 139.613281 62.511718 139.613281 139.617187zm0 0" fill="#57afff"/><path d="m379.503906 272.207031c0 77.113281-62.5 139.625-139.613281 139.625-20.558594 0-40.074219-4.441406-57.644531-12.417969l24.335937-53.707031c10.152344 4.609375 21.433594 7.175781 33.308594 7.175781 44.546875 0 80.667969-36.117187 80.667969-80.679687h58.945312zm0 0" fill="#ffd782"/><path d="m125.621094 62.808594c0 20.304687-9.644532 38.375-24.601563 49.851562v.011719c-10.578125 8.117187-23.835937 12.945313-38.207031 12.945313-14.050781 0-27.042969-4.613282-37.511719-12.421876-15.359375-11.457031-25.300781-29.761718-25.300781-50.386718 0-34.683594 28.125-62.808594 62.808594-62.808594 34.6875 0 62.8125 28.125 62.8125 62.808594zm0 0" fill="#cafff0"/><path d="m62.808594 0c-4.339844 0-8.582032.441406-12.675782 1.28125 28.609376 5.863281 50.132813 31.1875 50.132813 61.527344 0 20.304687-9.644531 38.375-24.601563 49.851562v.011719c-7.386718 5.664063-16.082031 9.722656-25.546874 11.664063 4.101562.839843 8.347656 1.28125 12.691406 1.28125 14.371094 0 27.628906-4.832032 38.210937-12.945313 0-.011719 0-.011719 0-.011719 14.957031-11.476562 24.597657-29.546875 24.597657-49.851562.003906-34.683594-28.121094-62.808594-62.808594-62.808594zm0 0" fill="#aaf2e4"/><path d="m101.019531 112.660156v.011719c-10.582031 8.117187-23.839843 12.945313-38.210937 12.945313-14.050782 0-27.039063-4.613282-37.507813-12.421876 2.660157-7.941406 5.871094-13.289062 7.707031-14.730468 1.851563-1.464844 3.964844-2.628906 6.28125-3.410156l6.738282-2.269532c1.527344-.511718 2.886718-1.328125 4.007812-2.378906 2.203125-2.050781 3.535156-4.964844 3.535156-8.105469v-9.375h18.480469v9.375c0 2.914063 1.132813 5.632813 3.058594 7.652344h.011719c1.203125 1.269531 2.730468 2.257813 4.460937 2.832031l6.734375 2.269532c6.789063 2.277343 12.796875 10.40625 14.703125 17.605468zm0 0" fill="#5ed4cd"/><path d="m76.214844 70.308594-8.375 5.097656c-3.09375 1.882812-6.976563 1.882812-10.066406 0l-8.378907-5.097656c-2.882812-1.757813-4.644531-4.894532-4.644531-8.273438v-22.398437c0-6.164063 4.992188-11.15625 11.152344-11.15625h13.808594c6.160156 0 11.152343 4.992187 11.152343 11.15625v22.398437c0 3.378906-1.761719 6.515625-4.648437 8.273438zm0 0" fill="#2fa39b"/><g fill="#fbb0ff"><path d="m131.347656 279.933594h-44.484375c-17.523437 0-31.78125-14.257813-31.78125-31.785156v-96.199219c0-4.265625 3.457031-7.722657 7.726563-7.722657 4.265625 0 7.722656 3.457032 7.722656 7.722657v96.199219c0 9.003906 7.328125 16.332031 16.332031 16.332031h44.484375c4.265625 0 7.726563 3.457031 7.726563 7.726562 0 4.265625-3.460938 7.726563-7.726563 7.726563zm0 0"/><path d="m399.90625 199.855469h-81.066406c-4.269532 0-7.726563-3.460938-7.726563-7.726563 0-4.269531 3.460938-7.726562 7.726563-7.726562h81.066406c17.894531 0 32.449219-14.558594 32.449219-32.453125 0-4.265625 3.460937-7.722657 7.726562-7.722657 4.269531 0 7.726563 3.457032 7.726563 7.722657 0 26.414062-21.488282 47.90625-47.902344 47.90625zm0 0"/><path d="m354.894531 462.550781h-32.589843c-20.371094 0-36.945313-16.574219-36.945313-36.945312v-61.4375c0-4.265625 3.457031-7.726563 7.726563-7.726563 4.265624 0 7.726562 3.460938 7.726562 7.726563v61.4375c0 11.851562 9.640625 21.492187 21.488281 21.492187h32.59375c4.269531 0 7.726563 3.457032 7.726563 7.726563 0 4.265625-3.457032 7.726562-7.726563 7.726562zm0 0"/></g><path d="m112.46875 422.589844h-84.140625c-4.265625 0-7.722656-3.460938-7.722656-7.726563s3.457031-7.726562 7.722656-7.726562h84.140625c4.269531 0 7.726562 3.460937 7.726562 7.726562s-3.457031 7.726563-7.726562 7.726563zm0 0" fill="#c7cfe2"/><path d="m87.292969 456.917969h-58.964844c-4.265625 0-7.722656-3.460938-7.722656-7.726563s3.457031-7.726562 7.722656-7.726562h58.96875c4.265625 0 7.722656 3.460937 7.722656 7.726562s-3.457031 7.726563-7.726562 7.726563zm0 0" fill="#d7deed"/><path d="m158.398438 494.140625h-130.070313c-4.265625 0-7.722656-3.457031-7.722656-7.726563 0-4.265624 3.457031-7.726562 7.722656-7.726562h130.070313c4.265624 0 7.726562 3.460938 7.726562 7.726562 0 4.269532-3.460938 7.726563-7.726562 7.726563zm0 0" fill="#c7cfe2"/><path d="m512 62.808594c0 20.304687-9.640625 38.375-24.601562 49.851562v.011719c-10.578126 8.117187-23.835938 12.945313-38.207032 12.945313-14.050781 0-27.042968-4.613282-37.507812-12.421876-15.363282-11.457031-25.300782-29.761718-25.300782-50.386718-.003906-34.683594 28.121094-62.808594 62.808594-62.808594 34.683594 0 62.808594 28.125 62.808594 62.808594zm0 0" fill="#c7f1ff"/><path d="m449.191406 0c-4.34375 0-8.585937.441406-12.679687 1.28125 28.609375 5.863281 50.132812 31.1875 50.132812 61.527344 0 20.304687-9.640625 38.375-24.601562 49.851562v.011719c-7.386719 5.664063-16.078125 9.722656-25.546875 11.664063 4.101562.839843 8.347656 1.28125 12.695312 1.28125 14.371094 0 27.628906-4.832032 38.207032-12.945313 0-.011719 0-.011719 0-.011719 14.960937-11.476562 24.601562-29.546875 24.601562-49.851562 0-34.683594-28.125-62.808594-62.808594-62.808594zm0 0" fill="#87dbff"/><path d="m487.398438 112.660156v.011719c-10.578126 8.117187-23.835938 12.945313-38.207032 12.945313-14.050781 0-27.042968-4.613282-37.507812-12.421876 2.65625-7.941406 5.871094-13.289062 7.703125-14.730468 1.855469-1.464844 3.96875-2.628906 6.285156-3.410156l6.738281-2.269532c1.523438-.511718 2.882813-1.328125 4.007813-2.378906 2.203125-2.050781 3.53125-4.964844 3.53125-8.105469v-9.375h18.480469v9.375c0 2.914063 1.132812 5.632813 3.0625 7.652344h.007812c1.207031 1.269531 2.730469 2.257813 4.460938 2.832031l6.738281 2.269532c6.789062 2.277343 12.792969 10.40625 14.699219 17.605468zm0 0" fill="#57afff"/><path d="m462.597656 70.308594-8.378906 5.097656c-3.089844 1.882812-6.976562 1.882812-10.066406 0l-8.375-5.097656c-2.886719-1.757813-4.648438-4.894532-4.648438-8.273438v-22.398437c0-6.164063 4.992188-11.15625 11.152344-11.15625h13.808594c6.160156 0 11.152344 4.992187 11.152344 11.15625v22.398437c0 3.378906-1.761719 6.515625-4.644532 8.273438zm0 0" fill="#3a85dd"/><path d="m512 449.191406c0 20.304688-9.644531 38.371094-24.601562 49.847656v.011719c-10.582032 8.117188-23.839844 12.949219-38.210938 12.949219-14.050781 0-27.039062-4.613281-37.507812-12.425781-15.359376-11.453125-25.300782-29.761719-25.300782-50.382813 0-34.6875 28.125-62.8125 62.808594-62.8125 34.6875 0 62.8125 28.125 62.8125 62.8125zm0 0" fill="#fff7d2"/><path d="m449.1875 386.378906c-4.339844 0-8.582031.441406-12.675781 1.28125 28.609375 5.867188 50.132812 31.1875 50.132812 61.53125 0 20.304688-9.644531 38.371094-24.601562 49.847656v.011719c-7.386719 5.667969-16.082031 9.726563-25.546875 11.664063 4.101562.839844 8.347656 1.285156 12.695312 1.285156 14.371094 0 27.628906-4.832031 38.207032-12.949219 0-.011719 0-.011719 0-.011719 14.957031-11.476562 24.601562-29.542968 24.601562-49.847656 0-34.6875-28.125-62.8125-62.8125-62.8125zm0 0" fill="#f9ecb7"/><path d="m487.398438 499.039062v.011719c-10.582032 8.117188-23.839844 12.949219-38.210938 12.949219-14.050781 0-27.039062-4.613281-37.507812-12.425781 2.660156-7.941407 5.871093-13.289063 7.707031-14.730469 1.851562-1.460938 3.964843-2.625 6.285156-3.410156l6.734375-2.265625c1.527344-.515625 2.886719-1.328125 4.007812-2.378907 2.203126-2.050781 3.535157-4.964843 3.535157-8.109374v-9.375h18.480469v9.375c0 2.917968 1.132812 5.636718 3.058593 7.65625h.011719c1.203125 1.265624 2.730469 2.253906 4.460938 2.832031l6.734374 2.265625c6.789063 2.277344 12.796876 10.40625 14.703126 17.605468zm0 0" fill="#ffd782"/><path d="m462.59375 456.6875-8.375 5.097656c-3.09375 1.882813-6.976562 1.882813-10.066406 0l-8.378906-5.097656c-2.882813-1.757812-4.644532-4.890625-4.644532-8.269531v-22.402344c0-6.160156 4.992188-11.15625 11.152344-11.15625h13.808594c6.15625 0 11.152344 4.996094 11.152344 11.15625v22.402344c0 3.378906-1.761719 6.511719-4.648438 8.269531zm0 0" fill="#f2a464"/></svg>