<svg height="512pt" viewBox="0 -20 512 512" width="512pt" xmlns="http://www.w3.org/2000/svg"><path d="m373.578125 427.078125v-381.339844c0-25.261719-20.355469-45.738281-45.460937-45.738281h-282.65625c-25.105469 0-45.460938 20.476562-45.460938 45.738281v381.339844c0 25.261719 20.355469 45.738281 45.460938 45.738281h373.574218zm0 0" fill="#eff2fa"/><path d="m216.894531 335.953125h-169.1875c-6.835937 0-12.378906-5.542969-12.378906-12.378906v-162.34375c0-6.835938 5.542969-12.378907 12.378906-12.378907h169.1875c6.835938 0 12.375 5.542969 12.375 12.378907v162.34375c0 6.835937-5.539062 12.378906-12.375 12.378906zm0 0" fill="#87dbff"/><g fill="#c7cfe2"><path d="m336.214844 162.597656h-75.179688c-4.265625 0-7.726562-3.460937-7.726562-7.726562 0-4.269532 3.460937-7.726563 7.726562-7.726563h75.179688c4.265625 0 7.726562 3.457031 7.726562 7.726563 0 4.265625-3.460937 7.726562-7.726562 7.726562zm0 0"/><path d="m336.214844 207.867188h-75.179688c-4.265625 0-7.726562-3.460938-7.726562-7.726563 0-4.269531 3.460937-7.726563 7.726562-7.726563h75.179688c4.265625 0 7.726562 3.457032 7.726562 7.726563 0 4.265625-3.460937 7.726563-7.726562 7.726563zm0 0"/><path d="m336.214844 253.136719h-75.179688c-4.265625 0-7.726562-3.457031-7.726562-7.726563 0-4.265625 3.460937-7.722656 7.726562-7.722656h75.179688c4.265625 0 7.726562 3.457031 7.726562 7.722656 0 4.269532-3.460937 7.726563-7.726562 7.726563zm0 0"/><path d="m336.214844 298.40625h-75.179688c-4.265625 0-7.726562-3.457031-7.726562-7.722656 0-4.269532 3.460937-7.726563 7.726562-7.726563h75.179688c4.265625 0 7.726562 3.457031 7.726562 7.726563 0 4.265625-3.460937 7.722656-7.726562 7.722656zm0 0"/><path d="m336.214844 343.679688h-75.179688c-4.265625 0-7.726562-3.460938-7.726562-7.726563s3.460937-7.726563 7.726562-7.726563h75.179688c4.265625 0 7.726562 3.460938 7.726562 7.726563s-3.460937 7.726563-7.726562 7.726563zm0 0"/><path d="m336.214844 388.949219h-300.886719c-4.265625 0-7.722656-3.457031-7.722656-7.726563 0-4.265625 3.457031-7.726562 7.722656-7.726562h300.886719c4.265625 0 7.722656 3.460937 7.722656 7.726562 0 4.269532-3.457031 7.726563-7.722656 7.726563zm0 0"/><path d="m336.214844 437.3125h-300.886719c-4.265625 0-7.722656-3.460938-7.722656-7.726562 0-4.269532 3.457031-7.726563 7.722656-7.726563h300.886719c4.265625 0 7.722656 3.460937 7.722656 7.726563.003906 4.265624-3.457031 7.726562-7.722656 7.726562zm0 0"/></g><path d="m86.535156 120.636719c-2.5 0-4.90625-1.21875-6.375-3.363281l-36.847656-53.792969v49.429687c0 4.265625-3.460938 7.726563-7.726562 7.726563-4.265626 0-7.726563-3.460938-7.726563-7.726563v-74.382812c0-3.386719 2.207031-6.378906 5.441406-7.382813 3.234375-1 6.746094.222657 8.660157 3.015625l36.847656 53.796875v-49.429687c0-4.265625 3.460937-7.726563 7.726562-7.726563s7.726563 3.460938 7.726563 7.726563v74.382812c0 3.386719-2.207031 6.378906-5.441407 7.378906-.753906.234376-1.523437.347657-2.285156.347657zm0 0" fill="#5c546a"/><path d="m156.589844 120.636719h-37.261719c-4.265625 0-7.722656-3.460938-7.722656-7.726563v-74.382812c0-4.265625 3.457031-7.726563 7.722656-7.726563h37.261719c4.265625 0 7.722656 3.460938 7.722656 7.726563s-3.457031 7.726562-7.722656 7.726562h-29.535156v58.929688h29.535156c4.265625 0 7.722656 3.457031 7.722656 7.726562 0 4.265625-3.457031 7.726563-7.722656 7.726563zm0 0" fill="#5c546a"/><path d="m156.589844 81.785156h-37.261719c-4.265625 0-7.722656-3.457031-7.722656-7.726562 0-4.265625 3.457031-7.722656 7.722656-7.722656h37.261719c4.265625 0 7.722656 3.457031 7.722656 7.722656 0 4.269531-3.457031 7.726562-7.722656 7.726562zm0 0" fill="#5c546a"/><path d="m202.949219 120.636719c-.199219 0-.398438-.007813-.601563-.023438-3.316406-.257812-6.09375-2.605469-6.898437-5.835937l-18.542969-74.382813c-1.035156-4.140625 1.484375-8.332031 5.625-9.363281s8.335938 1.484375 9.367188 5.625l12.9375 51.890625 14.171874-33.597656c1.222657-2.90625 4.050782-4.769531 7.242188-4.722657 3.152344.050782 5.957031 2.011719 7.089844 4.953126l12.800781 33.320312 14.789063-52.085938c1.164062-4.101562 5.441406-6.484374 9.542968-5.320312 4.105469 1.164062 6.488282 5.4375 5.324219 9.542969l-21.121094 74.382812c-.90625 3.199219-3.761719 5.457031-7.082031 5.609375-3.324219.152344-6.371094-1.84375-7.5625-4.949218l-14.242188-37.058594-15.722656 37.289062c-1.214844 2.878906-4.03125 4.726563-7.117187 4.726563zm0 0" fill="#5c546a"/><path d="m323.601562 120.636719h-24.976562c-4.265625 0-7.726562-3.460938-7.726562-7.726563s3.460937-7.726562 7.726562-7.726562h24.976562c2.648438 0 4.886719-1.773438 4.886719-3.871094v-14.703125c0-2.101563-2.238281-3.875-4.886719-3.875h-12.367187c-11.210937 0-20.335937-8.667969-20.335937-19.324219v-13.28125c0-10.65625 9.121093-19.328125 20.335937-19.328125h24.980469c4.265625 0 7.726562 3.460938 7.726562 7.726563s-3.460937 7.726562-7.726562 7.726562h-24.980469c-2.644531 0-4.882813 1.773438-4.882813 3.871094v13.28125c0 2.101562 2.238282 3.875 4.882813 3.875h12.367187c11.214844 0 20.339844 8.667969 20.339844 19.324219v14.703125c0 10.65625-9.125 19.328125-20.339844 19.328125zm0 0" fill="#5c546a"/><path d="m192.289062 336.628906h-125.519531c-3.4375 0-5.957031-3.242187-5.113281-6.574218l5.824219-22.996094c1.761719-6.949219 6.832031-12.585938 13.554687-15.070313l42.484375-15.695312c3.878907-1.433594 8.140625-1.433594 12.019531 0l42.484376 15.695312c6.722656 2.484375 11.792968 8.121094 13.554687 15.070313l5.824219 22.996094c.847656 3.335937-1.671875 6.574218-5.113282 6.574218zm0 0" fill="#3a85dd"/><path d="m145.878906 280.113281v-23.597656h-32.84375v23.648437l4.757813 2.792969c7.238281 4.25 16.21875 4.222657 23.433593-.074219zm0 0" fill="#fac5aa"/><path d="m160.820312 202.285156c0 1.070313-.054687 2.144532-.167968 3.230469l-.46875 6.304687-2.351563 31.277344c-.652343 6.328125-4.9375 11.691406-10.957031 13.726563l-12.238281 4.128906c-3.433594 1.160156-7.152344 1.136719-10.574219-.0625l-11.421875-4.003906c-5.925781-2.078125-10.121094-7.390625-10.78125-13.628907l-2.402344-31.4375-.476562-6.242187c-1.921875-18.308594 12.429687-34.242187 30.832031-34.242187 17.289062 0 31.007812 14.066406 31.007812 30.949218zm0 0" fill="#fdd7bd"/><path d="m160.820312 202.285156c0 1.070313-.054687 2.144532-.167968 3.230469l-.46875 6.304687h-9.449219c-2.296875-.125-5.34375-.4375-8.855469-1.226562-2.371094-.53125-6.628906-1.511719-11.660156-4.066406-2.738281-1.390625-6.480469-3.636719-10.332031-7.1875-1.648438 2.28125-4.871094 6.097656-10.171875 9.015625-4.015625 2.207031-7.746094 3.085937-10.257813 3.464843l-.476562-6.242187c-1.921875-18.308594 12.429687-34.242187 30.832031-34.242187 17.289062 0 31.007812 14.066406 31.007812 30.949218zm0 0" fill="#5c546a"/><path d="m512 145.421875v281.679687c0 25.25-20.355469 45.730469-45.460938 45.730469h-47.503906c-25.105468 0-45.460937-20.480469-45.460937-45.730469v-327.421874h92.964843c25.105469 0 45.460938 20.46875 45.460938 45.742187zm0 0" fill="#c7cfe2"/><path d="m483.433594 148.859375v274.628906c0 12.691407-10.28125 23.011719-22.921875 23.011719h-35.285157c-12.640624 0-22.921874-10.320312-22.921874-23.011719v-286.15625c0-14.679687 5.914062-27.988281 15.472656-37.652343h32.617187c-18.402343 2.503906-32.636719 18.441406-32.636719 37.652343v286.152344c0 4.171875 3.347657 7.5625 7.46875 7.5625h35.285157c4.121093 0 7.46875-3.390625 7.46875-7.5625v-274.625c0-3.296875-2.648438-5.972656-5.894531-5.972656h-4.265626c-3.253906 0-5.890624 2.679687-5.890624 5.972656v248.789063c0 4.265624-3.460938 7.726562-7.726563 7.726562-4.277344 0-7.726563-3.460938-7.726563-7.726562v-248.789063c0-11.8125 9.570313-21.425781 21.34375-21.425781h4.265626c11.765624 0 21.347656 9.613281 21.347656 21.425781zm0 0" fill="#acb8d1"/></svg>