<svg height="512pt" viewBox="0 -86 512 512" width="512pt" xmlns="http://www.w3.org/2000/svg"><path d="m481.679688 31.078125v275.566406h-451.359376v-275.566406c0-17.160156 13.917969-31.078125 31.085938-31.078125h389.1875c17.167969 0 31.085938 13.917969 31.085938 31.078125zm0 0" fill="#c7f1ff"/><path d="m450.59375 0h-43.625c17.171875 0 31.089844 13.917969 31.089844 31.078125v275.148437h43.621094v-275.148437c0-17.160156-13.917969-31.078125-31.085938-31.078125zm0 0" fill="#87dbff"/><path d="m482.230469 340.226562h-452.460938c-16.441406 0-29.769531-13.328124-29.769531-29.769531v-10.480469c0-1.839843 1.492188-3.332031 3.332031-3.332031h505.335938c1.839843 0 3.332031 1.492188 3.332031 3.332031v10.480469c0 16.441407-13.328125 29.769531-29.769531 29.769531zm0 0" fill="#5c546a"/><path d="m508.539062 296.644531h-79.632812c1.914062 0 3.460938 1.550781 3.460938 3.460938v9.199219c0 17.078124-13.839844 30.921874-30.917969 30.921874h79.628906c17.078125 0 30.921875-13.84375 30.921875-30.921874v-9.199219c0-1.910157-1.550781-3.460938-3.460938-3.460938zm0 0" fill="#4f495b"/><path d="m481.679688 31.078125v15.277344h-451.359376v-15.277344c0-17.160156 13.917969-31.078125 31.085938-31.078125h389.1875c17.167969 0 31.085938 13.917969 31.085938 31.078125zm0 0" fill="#57afff"/><path d="m450.59375 0h-43.695312c17.167968 0 31.085937 13.917969 31.085937 31.078125v15.277344h43.695313v-15.277344c0-17.160156-13.917969-31.078125-31.085938-31.078125zm0 0" fill="#3a85dd"/><path d="m67.171875 23.453125c0 4.304687-3.488281 7.792969-7.789063 7.792969-4.304687 0-7.789062-3.488282-7.789062-7.792969 0-4.300781 3.484375-7.789063 7.789062-7.789063 4.300782 0 7.789063 3.488282 7.789063 7.789063zm0 0" fill="#fff"/><path d="m91.582031 23.453125c0 4.304687-3.488281 7.792969-7.792969 7.792969-4.300781 0-7.789062-3.488282-7.789062-7.792969 0-4.300781 3.488281-7.789063 7.789062-7.789063 4.304688 0 7.792969 3.488282 7.792969 7.789063zm0 0" fill="#fff"/><path d="m116.25 23.453125c0 4.304687-3.488281 7.792969-7.789062 7.792969-4.304688 0-7.792969-3.488282-7.792969-7.792969 0-4.300781 3.488281-7.789063 7.792969-7.789063 4.300781 0 7.789062 3.488282 7.789062 7.789063zm0 0" fill="#fff"/><path d="m339.855469 122.976562h-27.019531c-3.9375 0-7.132813-3.191406-7.132813-7.132812v-27.019531c0-3.9375 3.195313-7.132813 7.132813-7.132813h27.019531c3.941406 0 7.132812 3.195313 7.132812 7.132813v27.019531c0 3.941406-3.191406 7.132812-7.132812 7.132812zm0 0" fill="#937de2"/><path d="m339.855469 192.136719h-27.019531c-3.9375 0-7.132813-3.195313-7.132813-7.132813v-27.019531c0-3.941406 3.195313-7.136719 7.132813-7.136719h27.019531c3.941406 0 7.132812 3.195313 7.132812 7.136719v27.019531c0 3.9375-3.191406 7.132813-7.132812 7.132813zm0 0" fill="#937de2"/><path d="m339.855469 261.292969h-27.019531c-3.9375 0-7.132813-3.191407-7.132813-7.132813v-27.019531c0-3.941406 3.195313-7.132813 7.132813-7.132813h27.019531c3.941406 0 7.132812 3.191407 7.132812 7.132813v27.019531c0 3.941406-3.191406 7.132813-7.132812 7.132813zm0 0" fill="#937de2"/><g fill="#57afff"><path d="m450.78125 96.058594h-69.464844c-4.304687 0-7.789062-3.488282-7.789062-7.789063s3.484375-7.789062 7.789062-7.789062h69.464844c4.304688 0 7.792969 3.488281 7.792969 7.789062s-3.488281 7.789063-7.792969 7.789063zm0 0"/><path d="m416.050781 128.429688h-34.734375c-4.300781 0-7.789062-3.488282-7.789062-7.789063s3.488281-7.789063 7.789062-7.789063h34.734375c4.300781 0 7.789063 3.488282 7.789063 7.789063 0 4.304687-3.488282 7.789063-7.789063 7.789063zm0 0"/><path d="m450.78125 163.097656h-69.464844c-4.304687 0-7.789062-3.488281-7.789062-7.789062 0-4.304688 3.484375-7.792969 7.789062-7.792969h69.464844c4.304688 0 7.792969 3.488281 7.792969 7.792969 0 4.300781-3.488281 7.789062-7.792969 7.789062zm0 0"/><path d="m416.050781 195.46875h-34.734375c-4.300781 0-7.789062-3.488281-7.789062-7.789062 0-4.304688 3.488281-7.789063 7.789062-7.789063h34.734375c4.300781 0 7.789063 3.484375 7.789063 7.789063 0 4.300781-3.488282 7.789062-7.789063 7.789062zm0 0"/><path d="m450.78125 233.765625h-69.464844c-4.304687 0-7.789062-3.488281-7.789062-7.789063 0-4.304687 3.484375-7.789062 7.789062-7.789062h69.464844c4.304688 0 7.792969 3.484375 7.792969 7.789062 0 4.300782-3.488281 7.789063-7.792969 7.789063zm0 0"/><path d="m416.050781 266.136719h-34.734375c-4.300781 0-7.789062-3.484375-7.789062-7.789063 0-4.300781 3.488281-7.789062 7.789062-7.789062h34.734375c4.300781 0 7.789063 3.488281 7.789063 7.789062 0 4.300782-3.488282 7.789063-7.789063 7.789063zm0 0"/></g><path d="m120.972656 171.492188h-19.242187c-3.035157 0-5.492188 2.457031-5.492188 5.492187v84.308594h30.222657v-84.308594c0-3.035156-2.457032-5.492187-5.488282-5.492187zm0 0" fill="#2fa39b"/><path d="m181.25 111.8125h-19.242188c-3.03125 0-5.492187 2.457031-5.492187 5.492188v143.988281h30.222656v-143.988281c0-3.035157-2.457031-5.492188-5.488281-5.492188zm0 0" fill="#f2a464"/><path d="m241.527344 180.671875h-19.242188c-3.03125 0-5.488281 2.460937-5.488281 5.492187v75.128907h30.222656v-75.128907c0-3.03125-2.460937-5.492187-5.492187-5.492187zm0 0" fill="#ff4a4a"/><path d="m261.59375 269.085938h-194.785156c-4.300782 0-7.789063-3.488282-7.789063-7.792969v-179.601563c0-4.300781 3.488281-7.789062 7.789063-7.789062 4.304687 0 7.792968 3.488281 7.792968 7.789062v171.8125h186.992188c4.300781 0 7.789062 3.488282 7.789062 7.789063 0 4.304687-3.488281 7.792969-7.789062 7.792969zm0 0" fill="#57afff"/><path d="m384.632812 197.480469c-1.265624 0-2.410156-.75-2.917968-1.90625l-14.621094-32.058594-11.535156 10.484375c-.613282.558594-1.324219.839844-2.105469.839844-1.582031 0-3.21875-1.195313-3.222656-3.191406l-.125-64.226563c-.003907-1.105469.484375-1.824219.890625-2.234375.617187-.617188 1.46875-.96875 2.335937-.96875.789063 0 1.503907.289062 2.121094.855469l47.175781 43.585937c1.410156 1.304688 1.011719 2.90625.851563 3.367188-.15625.460937-.816407 1.972656-2.730469 2.144531l-15.660156 1.402344 14.65625 32.136719c.6875 1.566406-.046875 3.449218-1.652344 4.15625l-12.183594 5.34375c-.410156.179687-.839844.269531-1.277344.269531zm0 0" fill="#5c546a"/><path d="m353.304688 107.335938c.007812.007812.019531.015624.035156.027343l47.175781 43.585938c.011719.011719.023437.023437.027344.027343-.003907.035157-.015625.082032-.003907.082032h.003907s-.023438.003906-.070313.007812l-11.273437 1.007813-8.769531.785156 3.652343 8.007813 12.796875 28.058593c.007813.03125-.011718.074219-.039062.085938l-12.207032 5.351562c-.011718 0-.046874-.003906-.066406-.042969l-.015625-.039062-.019531-.042969-12.832031-28.132812-3.542969-7.769531-6.316406 5.746093-8.378906 7.613281c-.011719.011719-.023438.023438-.03125.027344-.023438-.003906-.054688-.015625-.070313-.015625-.003906 0-.007813.003907-.007813.003907s-.003906-.019532-.003906-.066407l-.125-64.230469c0-.015624 0-.03125 0-.039062.023438-.015625.054688-.03125.082032-.039062m.027343-6.234376c-3.25 0-6.351562 2.542969-6.34375 6.328126l.125 64.226562c.007813 3.769531 3.097657 6.300781 6.339844 6.300781 1.457031 0 2.945313-.511719 4.199219-1.652343l8.378906-7.613282 12.828125 28.132813c1.039063 2.363281 3.351563 3.773437 5.773437 3.773437.847657 0 1.707032-.171875 2.527344-.535156l12.183594-5.34375c3.1875-1.398438 4.636719-5.117188 3.238281-8.304688l-12.828125-28.132812 11.273438-1.007812c5.445312-.484376 7.730468-7.195313 3.714844-10.90625l-47.175782-43.582032c-1.257812-1.160156-2.761718-1.683594-4.234375-1.683594zm0 0" fill="#fff"/></svg>