<svg height="511pt" viewBox="0 0 511 511.99998" width="511pt" xmlns="http://www.w3.org/2000/svg"><path d="m506.453125 310.929688c-4.980469 22.65625-12.828125 43.941406-23.078125 63.574218-6.613281 12.699219-14.242188 24.691406-22.742188 35.90625-8.164062 10.789063-17.140624 20.851563-26.824218 30.136719-25.371094 24.367187-55.558594 43.289063-88.542969 55.523437-20.179687 7.492188-41.421875 12.46875-63.25 14.652344-16.75 1.679688-33.847656 1.699219-51.082031-.050781-9.769532-.992187-19.578125-2.554687-29.398438-4.707031-30.84375-6.792969-59.167968-18.867188-84.1875-35.101563-2.351562-1.519531-4.671875-3.070312-6.960937-4.675781-22.332031-15.523438-41.855469-34.417969-58.003907-55.789062-27.945312-36.960938-45.792968-81.335938-50.582031-128.476563-2.679687-26.351563-1.273437-53.585937 4.714844-80.863281 4.800781-21.804688 12.226563-42.34375 21.921875-61.351563 14.828125-29.144531 34.921875-54.703125 58.785156-75.714843 17.4375-15.355469 36.90625-28.277344 57.804688-38.394532 11.117187-5.402344 22.644531-10 34.503906-13.753906h.007812c35.054688-11.078125 72.910157-14.726562 111.285157-9.484375 6.847656.9375 13.714843 2.160156 20.582031 3.660156 5.03125 1.105469 9.988281 2.351563 14.882812 3.734375 33.3125 9.40625 63.363282 25.113282 89.082032 45.546875 9.789062 7.761719 18.964844 16.199219 27.457031 25.230469 9.523437 10.136719 18.207031 21.011719 25.9375 32.507812 11.023437 16.371094 20.148437 34.007813 27.148437 52.554688 17.003907 44.863281 21.59375 94.988281 10.539063 145.335938zm0 0" fill="#87dbff"/><path d="m296.773438 345.472656c-11.6875 12.914063-22.140626 20.539063-31.378907 29.421875-13.101562 12.601563-22.121093 26.160157-28.585937 38.382813-12.058594 22.765625-15.273438 40.90625-19.671875 39.683594-4.800781-1.339844 2.289062-20.347657 2.929687-46.0625.296875-11.511719-.707031-24.378907-4.660156-37.597657l3.890625-51.75.769531-10.367187c.253906-2.585938.390625-5.203125.390625-7.773438 0-43.523437-35.453125-78.925781-79.015625-78.925781-12.660156 0-25 3.050781-36.042968 8.714844-7.46875-4.207031-14.769532-9.875-21.371094-18.226563-16.066406-20.304687-16.160156-53.882812-7.058594-76.328125 11.128906-27.425781 35.410156-36.8125 31.402344-52.667969-2.488282-9.796874-13.300782-12.382812-21.148438-17.984374 17.4375-15.359376 36.910156-28.28125 57.804688-38.394532 7.933594 6.148438 14.398437 14.15625 17.871094 22.5625 9.132812 22.140625-5.507813 39.976563 4.269531 49.039063 13.714843 12.699219 48.765625-16.488281 59.472656-6.046875 10.714844 10.445312-4.367187 59.242187-37.59375 75.210937-24.800781 11.929688-49.714844.75-57.839844 15.074219-4.3125 7.574219-1.917969 18.785156 3.441407 25.429688 10.113281 12.523437 28.121093 5.601562 51.90625 11.351562 22.152343 5.359375 22.015624 15.125 52.605468 34.230469 22.941406 14.34375 42.507813 21.042969 57.140625 26.148437-2.542969 9.261719-3.40625 19.007813-2.4375 28.742188zm0 0" fill="#2fa39b"/><path d="m290.539062 17.496094c-3.859374 21.8125-23.019531 32.117187-26.253906 33.78125-21.9375 11.265625-48.050781 3.53125-63.898437-9.765625-9.054688-7.59375-16.847657-18.761719-20.851563-29.667969 35.058594-11.082031 72.914063-14.730469 111.285156-9.484375.964844 7.601563-.085937 14.039063-.28125 15.136719zm0 0" fill="#eff2fa"/><path d="m506.453125 310.929688c-4.980469 22.65625-12.828125 43.941406-23.078125 63.574218-9.820312 2.804688-18.660156 2.960938-23.070312-1.402344-5.230469-5.179687-1.085938-13.621093 2.964843-43.777343 2.402344-17.910157 4.472657-33.300781 3.375-50.179688-.550781-8.523437-3.3125-51.222656-19.398437-55.28125-8.082032-2.039062-15.484375 6.695313-23.1875 15.800781-13.519532-11.667968-31.03125-18.839843-50.1875-19.167968-2.828125-11.140625-4.28125-21.53125-4.875-25.78125-2.910156-20.925782-6.339844-45.503906 7.777344-59.113282 9.480468-9.132812 17.425781-4.226562 49.839843-10.367187 21.359375-4.050781 33.257813-9.082031 42.148438-12.195313 11.023437 16.371094 20.148437 34.007813 27.152343 52.550782 17.003907 44.867187 21.59375 94.992187 10.539063 145.339844zm0 0" fill="#2fa39b"/><path d="m442.820312 80.53125c-5.449218.820312-12.320312 2.082031-20.898437 5.605469-9.550781 3.90625-8.171875 5.261719-21.460937 11.363281-15.964844 7.339844-26.144532 12.011719-34.476563 8.460938-6.320313-2.699219-7.757813-8.488282-13.546875-21.949219-16.34375-38.015625-25.25-39.238281-26.476562-58.804688-.171876-2.738281-.5625-8.984375.328124-15.457031 33.316407 9.417969 63.359376 25.117188 89.082032 45.550781 9.789062 7.761719 18.960937 16.203125 27.449218 25.230469zm0 0" fill="#2fa39b"/><path d="m460.632812 410.410156c-47.902343 63.300782-124.554687 101.601563-203.972656 101.558594-79.652344-.03125-156.253906-38.015625-204.277344-101.570312 12.683594-4.683594 19.984376-18.148438 16.683594-31.261719-.605468-2.414063-1.050781-4.886719-1.316406-7.398438l-.042969-.378906-4.882812-64.019531c-2.203125-22.097656 5.03125-44.207032 19.894531-60.714844 6.496094-7.214844 14.199219-13.089844 22.679688-17.425781 23.617187 13.300781 48.941406 12.023437 59.363281 34.882812 6.507812 14.261719 14.484375 11.078125 19.0625 38.535157 4.164062 25.019531 16.582031 31.371093 26.644531 53.480468 2.015625 4.417969 3.640625 8.839844 4.9375 13.203125l-.128906 1.742188-.03125.371093c-.558594 5.414063-1.929688 10.625-3.996094 15.488282-3.363281 7.90625.757812 17.015625 8.816406 19.996094l12.363282 4.566406c1.484374.546875 2.953124 1.160156 4.378906 1.8125.621094.285156 1.238281.578125 1.851562.882812 11.199219 5.546875 24.253906 5.703125 35.425782.101563 2.082031-1.042969 4.230468-1.980469 6.445312-2.796875 13.953125-5.148438 22.210938-19.726563 19.128906-34.28125-.378906-1.785156-.667968-3.605469-.859375-5.445313l-.042969-.378906-1.984374-25.882813c4.261718-4.683593 8.671874-10.074218 13.25-16.46875 10.800781-15.082031 16.171874-22.773437 14.746093-30.714843-1.84375-10.242188-12.066406-13.964844-28.46875-19.695313 3.226563-11.75 9.15625-22.742187 17.46875-31.96875 14.957031-16.617187 36.359375-26.140625 58.722657-26.140625.460937 0 .925781 0 1.378906.011719 4.230468 16.675781 11.574218 35.050781 23.789062 37.035156 9.902344 1.601563 18.320313-8.335937 26.402344-17.871094 16.792969 14.484376 27.433594 35.898438 27.433594 59.746094 0 2.585938-.125 5.203125-.378906 7.785156l-.769532 10.359376-4.019531 53.488281-.03125.371093c-.285156 2.734376-.773437 5.417969-1.457031 8.035157-3.371094 12.921875 3.261718 26.332031 15.792968 30.960937zm0 0" fill="#73d3f4"/><g fill="#29998b"><path d="m220.457031 299.410156c0 2.574219-.136719 5.1875-.390625 7.773438l-.769531 10.371094-3.890625 51.75c-1.300781-4.367188-2.921875-8.789063-4.9375-13.207032-10.0625-22.109375-22.480469-28.460937-26.644531-53.480468-4.578125-27.457032-12.554688-24.269532-19.0625-38.535157-10.421875-22.855469-35.746094-21.578125-59.363281-34.882812 11.042968-5.664063 23.382812-8.710938 36.042968-8.710938 43.5625 0 79.015625 35.398438 79.015625 78.921875zm0 0"/><path d="m310.023438 329.007812c-4.578126 6.394532-8.988282 11.78125-13.25 16.464844l-2.910157-38.132812c-.96875-9.734375-.105469-19.480469 2.4375-28.742188 16.402344 5.726563 26.621094 9.453125 28.46875 19.695313 1.425781 7.941406-3.945312 15.632812-14.746093 30.714843zm0 0"/><path d="m424.0625 239.664062c-8.082031 9.535157-16.5 19.472657-26.402344 17.867188-12.214844-1.980469-19.558594-20.355469-23.789062-37.035156 19.15625.328125 36.667968 7.5 50.191406 19.167968zm0 0"/></g><path d="m247.515625 512h-213.121094c-5.839843 0-10.117187-5.5-8.683593-11.160156l9.890624-39.046875c2.988282-11.796875 11.597657-21.367188 23.015626-25.585938l72.136718-26.648437c6.582032-2.429688 13.820313-2.429688 20.402344 0l72.136719 26.648437c11.417969 4.21875 20.027343 13.789063 23.015625 25.585938l9.890625 39.046875c1.4375 5.660156-2.84375 11.160156-8.683594 11.160156zm0 0" fill="#3a85dd"/><path d="m112.953125 416.136719-19.613281 7.242187 20.476562 20.367188c3.792969 3.769531 9.859375 3.960937 13.882813.4375l13.257812-11.613282zm0 0" fill="#3375d3"/><path d="m168.714844 416.042969 19.859375 7.335937-21.152344 20.429688c-3.863281 3.730468-9.960937 3.816406-13.929687.199218l-12.535157-11.4375zm0 0" fill="#3375d3"/><path d="m168.714844 416.042969v-31.078125h-55.761719v31.171875l28.003906 16.433593zm0 0" fill="#fac5aa"/><path d="m194.082031 299.40625c0 1.8125-.09375 3.636719-.285156 5.484375l-.796875 10.699219-3.988281 53.109375c-1.109375 10.742187-8.386719 19.851562-18.605469 23.304687l-20.78125 7.007813c-5.828125 1.972656-12.144531 1.933593-17.949219-.101563l-19.398437-6.800781c-10.058594-3.53125-17.179688-12.542969-18.300782-23.140625l-4.082031-53.378906-.808593-10.597656c-3.265626-31.082032 21.101562-58.140626 52.351562-58.140626 29.351562 0 52.644531 23.886719 52.644531 52.554688zm0 0" fill="#fdd7bd"/><path d="m194.082031 299.40625c0 1.8125-.09375 3.636719-.285156 5.484375l-.796875 10.699219h-16.039062c-7.8125-.425782-20.683594-2.128906-34.835938-8.984375-10.902344-5.28125-18.816406-11.804688-24.042969-16.917969-.773437-.757812-2.070312-.398438-2.339843.648438-1.0625 4.125-3.660157 11.128906-10.136719 17.0625-6.03125 5.527343-12.519531 7.464843-15.710938 8.191406l-.808593-10.597656c-3.265626-31.082032 21.101562-58.140626 52.351562-58.140626 29.351562 0 52.644531 23.886719 52.644531 52.554688zm0 0" fill="#5c546a"/><path d="m478.5625 512h-213.117188c-5.839843 0-10.121093-5.5-8.6875-11.160156l9.890626-39.046875c2.988281-11.796875 11.597656-21.367188 23.015624-25.585938l72.136719-26.648437c6.585938-2.429688 13.820313-2.429688 20.40625 0l72.132813 26.648437c11.417968 4.21875 20.027344 13.789063 23.015625 25.585938l9.890625 39.046875c1.4375 5.660156-2.839844 11.160156-8.683594 11.160156zm0 0" fill="#ffd782"/><path d="m344 416.136719-19.613281 7.242187 20.480469 20.367188c3.792968 3.769531 9.855468 3.960937 13.882812.4375l13.257812-11.613282zm0 0" fill="#ff8000"/><path d="m399.765625 416.042969 19.855469 7.335937-21.152344 20.429688c-3.863281 3.730468-9.960938 3.816406-13.929688.199218l-12.535156-11.4375zm0 0" fill="#ff8000"/><path d="m399.765625 416.042969v-31.078125h-55.765625v31.171875l28.003906 16.433593zm0 0" fill="#fac5aa"/><path d="m425.128906 299.40625c0 1.8125-.09375 3.636719-.28125 5.484375l-.800781 10.699219-3.988281 53.109375c-1.105469 10.742187-8.382813 19.851562-18.605469 23.304687l-20.777344 7.007813c-5.832031 1.972656-12.144531 1.933593-17.953125-.101563l-19.398437-6.800781c-10.054688-3.53125-17.179688-12.542969-18.300781-23.140625l-4.078126-53.378906-.8125-10.597656c-3.265624-31.082032 21.105469-58.140626 52.351563-58.140626 29.351563 0 52.644531 23.886719 52.644531 52.554688zm0 0" fill="#fdd7bd"/><path d="m425.128906 299.40625c0 1.8125-.09375 3.636719-.28125 5.484375l-.800781 10.699219h-16.039063c-7.808593-.425782-20.679687-2.128906-34.835937-8.984375-10.898437-5.28125-18.816406-11.804688-24.042969-16.917969-.769531-.757812-2.070312-.398438-2.339844.648438-1.058593 4.125-3.65625 11.128906-10.136718 17.0625-6.03125 5.527343-12.519532 7.464843-15.710938 8.191406l-.808594-10.597656c-3.265624-31.082032 21.101563-58.140626 52.351563-58.140626 29.351563 0 52.644531 23.886719 52.644531 52.554688zm0 0" fill="#5c546a"/></svg>