<svg height="512pt" viewBox="-33 0 512 512" width="512pt" xmlns="http://www.w3.org/2000/svg"><path d="m136.8125 194.601562h-17.390625c-10.984375 0-19.890625-8.90625-19.890625-19.890624v-22.082032c0-10.984375 8.90625-19.890625 19.890625-19.890625h17.390625zm0 0" fill="#fac5aa"/><path d="m311.066406 194.601562h17.390625c10.984375 0 19.890625-8.90625 19.890625-19.890624v-22.082032c0-10.984375-8.90625-19.890625-19.890625-19.890625h-17.390625zm0 0" fill="#fabaa1"/><path d="m428.84375 512h-411.53125c-11.28125 0-19.542969-10.617188-16.773438-21.550781l19.101563-75.398438c5.769531-22.785156 22.394531-41.265625 44.441406-49.410156l139.292969-51.453125c12.714844-4.699219 26.6875-4.699219 39.402344 0l139.292968 51.453125c22.050782 8.144531 38.671876 26.625 44.445313 49.410156l19.101563 75.398438c2.769531 10.933593-5.492188 21.550781-16.773438 21.550781zm0 0" fill="#87dbff"/><path d="m445.617188 490.449219-19.101563-75.398438c-5.773437-22.785156-22.394531-41.265625-44.441406-49.410156l-139.296875-51.453125c-12.714844-4.699219-26.6875-4.699219-39.402344 0l-3.285156 1.210938 136.007812 50.242187c22.046875 8.144531 38.671875 26.625 44.441406 49.410156l19.101563 75.398438c2.769531 10.933593-5.492187 21.550781-16.769531 21.550781h45.972656c11.277344 0 19.542969-10.617188 16.773438-21.550781zm0 0" fill="#6fc7ff"/><g fill="#57afff"><path d="m169 326.882812-37.871094 13.992188 42.046875 41.8125c5.914063 5.882812 15.371094 6.183594 21.648438.683594l28.253906-24.746094zm0 0"/><path d="m276.683594 326.710938 38.34375 14.164062-43.398438 41.910156c-6.027344 5.820313-15.535156 5.957032-21.722656.3125l-26.828125-24.472656zm0 0"/><path d="m223.078125 489.265625c-4.371094 0-7.910156-3.539063-7.910156-7.910156v-84.351563c0-4.371094 3.539062-7.910156 7.910156-7.910156s7.910156 3.542969 7.910156 7.910156v84.351563c0 4.371093-3.542969 7.910156-7.910156 7.910156zm0 0"/></g><path d="m276.683594 326.710938v-60.019532h-107.683594v60.191406l54.078125 31.742188zm0 0" fill="#fabaa1"/><path d="m325.664062 101.476562c0 3.503907-.179687 7.027344-.546874 10.59375l-1.542969 20.664063-7.699219 102.554687c-2.140625 20.738282-16.191406 38.332032-35.929688 45l-16.234374 5.476563-23.890626 8.058594c-11.257812 3.808593-23.449218 3.734375-34.664062-.203125l-37.457031-13.132813c-19.421875-6.8125-33.175781-24.21875-35.339844-44.683593l-7.878906-103.070313-1.5625-20.464844c-5.683594-54.125 32.027343-101.929687 83.738281-110.792969 1.402344-.25 2.824219-.460937 4.25-.640624.726562-.097657 1.457031-.179688 2.183594-.253907.453125-.054687.898437-.09375 1.351562-.136719.378906-.03125.769532-.074218 1.160156-.105468.398438-.03125.808594-.0625 1.210938-.085938.507812-.039062 1.011719-.074218 1.527344-.09375.210937-.011718.414062-.019531.625-.03125.589844-.0312498 1.191406-.0546872 1.804687-.0742185.25-.0117187.503907-.0234375.769531-.0234375.824219-.0195312 1.644532-.03125 2.46875-.03125 56.679688 0 101.65625 46.117188 101.65625 101.476562zm0 0" fill="#fdd7bd"/><path d="m325.664062 101.476562c0 3.503907-.179687 7.027344-.546874 10.59375l-1.542969 20.664063-7.699219 102.554687c-2.140625 20.738282-16.191406 38.332032-35.929688 45l-16.234374 5.476563c9.695312-8.660156 16.078124-20.78125 17.472656-34.222656l7.699218-118.808594 1.539063-20.664063c.371094-3.566406.550781-7.089843.550781-10.589843 0-49.570313-36.078125-91.734375-84.316406-100.003907 1.414062-.242187 2.828125-.453124 4.25-.640624.730469-.097657 1.457031-.179688 2.183594-.253907.457031-.054687.898437-.09375 1.351562-.136719.378906-.03125.769532-.074218 1.160156-.105468.402344-.03125.8125-.0625 1.214844-.085938.503906-.039062 1.011719-.074218 1.527344-.09375.210938-.011718.410156-.019531.621094-.03125.59375-.0312498 1.191406-.0546872 1.804687-.0742185.253907-.0117187.507813-.0234375.769531-.0234375.824219-.0195312 1.644532-.03125 2.46875-.03125 56.679688 0 101.65625 46.117188 101.65625 101.476562zm0 0" fill="#fac5aa"/><path d="m325.664062 101.476562c0 3.503907-.179687 7.027344-.546874 10.59375l-1.542969 20.664063h-30.96875c-15.085938-.824219-39.9375-4.113281-67.269531-17.351563-21.046876-10.195312-36.335938-22.792968-46.425782-32.667968-1.492187-1.460938-4-.769532-4.519531 1.25-2.046875 7.96875-7.0625 21.488281-19.570313 32.953125-11.648437 10.675781-24.175781 14.417969-30.339843 15.816406l-1.5625-20.464844c-6.304688-60.023437 40.75-112.269531 101.089843-112.269531 56.679688 0 101.65625 46.117188 101.65625 101.476562zm0 0" fill="#5c546a"/><path d="m224.007812 0c-5.925781 0-11.71875.511719-17.347656 1.476562 48.238282 8.269532 84.308594 50.429688 84.308594 100 0 3.503907-.179688 7.027344-.550781 10.59375l-1.519531 20.417969c1.285156.097657 2.535156.183594 3.707031.246094h30.96875l1.542969-20.667969c.367187-3.5625.546874-7.085937.546874-10.589844 0-55.359374-44.976562-101.476562-101.65625-101.476562zm0 0" fill="#4f495b"/><path d="m189.3125 164.269531c0 5.101563-4.132812 9.234375-9.230469 9.234375-5.101562 0-9.234375-4.132812-9.234375-9.234375 0-5.097656 4.132813-9.230469 9.234375-9.230469 5.097657 0 9.230469 4.132813 9.230469 9.230469zm0 0" fill="#5c546a"/><path d="m271.300781 164.269531c0 5.101563-4.136719 9.234375-9.234375 9.234375s-9.234375-4.132812-9.234375-9.234375c0-5.097656 4.136719-9.230469 9.234375-9.230469s9.234375 4.132813 9.234375 9.230469zm0 0" fill="#5c546a"/><path d="m257.40625 231.242188c-2.367188-3.675782-7.265625-4.730469-10.9375-2.367188-6.019531 3.878906-12.695312 6.164062-19.390625 6.699219l-6.105469.011719c-8.242187-.65625-14.949218-3.832032-19.359375-6.632813-3.6875-2.339844-8.574219-1.25-10.917969 2.441406-2.339843 3.691407-1.246093 8.578125 2.441407 10.921875 6.746093 4.28125 17.449219 9.226563 30.882812 9.226563.753907 0 1.515625-.015625 2.285157-.046875 9.984374-.417969 19.921874-3.640625 28.734374-9.320313 3.671876-2.363281 4.730469-7.261719 2.367188-10.933593zm0 0" fill="#5c546a"/></svg>