<svg height="512pt" viewBox="-28 0 511 512" width="512pt" xmlns="http://www.w3.org/2000/svg"><path d="m360.441406 460.042969c-15.917968 0-31.160156-2.296875-45.664062-6.898438-37.070313-11.761719-57.722656-34.765625-79.585938-59.121093-17.300781-19.273438-35.191406-39.207032-63.148437-56.015626-43.484375-26.148437-98.320313-36.050781-162.96875-29.433593-4.292969.433593-8.097657-2.671875-8.53125-6.945313-.441407-4.277344 2.671875-8.097656 6.945312-8.535156 68.082031-6.96875 126.140625 3.65625 172.574219 31.578125 29.957031 18.011719 49.484375 39.765625 66.710938 58.957031 21.292968 23.714844 39.679687 44.199219 72.710937 54.679688 34.714844 11.015625 74.601563 7.25 118.554687-11.195313 3.964844-1.664062 8.523438.203125 10.1875 4.164063 1.664063 3.960937-.203124 8.523437-4.164062 10.1875-29.5 12.375-57.46875 18.578125-83.621094 18.578125zm0 0" fill="#ffd782"/><path d="m61.765625 398.476562c-15.789063 0-32.460937-3.242187-49.871094-9.71875-4.03125-1.5-6.078125-5.980468-4.582031-10.007812 1.5-4.027344 5.980469-6.074219 10.007812-4.578125 26.449219 9.839844 50.675782 11.367187 72.003907 4.554687 46.011719-14.707031 69.511719-65.199218 90.25-109.746093 17.445312-37.488281 32.527343-69.882813 58.898437-69.882813.105469 0 .210938 0 .320313.003906 22.410156.21875 37.636719 24.289063 52.359375 47.570313 14.554687 23.007813 29.570312 46.773437 49.0625 45.585937 8.527344-.535156 15.550781-5.398437 23.675781-11.03125 11.167969-7.738281 23.816406-16.507812 42.265625-13.804687 14.214844 2.085937 27.375 10.414063 39.117188 24.757813 2.722656 3.324218 2.234374 8.226562-1.09375 10.949218-3.324219 2.722656-8.226563 2.234375-10.949219-1.09375-9.207031-11.246094-19.074219-17.710937-29.332031-19.214844-12.375-1.816406-21.070313 4.21875-31.140626 11.199219-8.773437 6.078125-18.714843 12.964844-31.574218 13.769531-.84375.054688-1.683594.078126-2.511719.078126-27.226563.003906-44.960937-28.046876-60.671875-52.878907-12.496094-19.757812-25.417969-40.1875-39.363281-40.324219-.046875-.003906-.09375-.003906-.140625-.003906-16.472656 0-29.609375 28.222656-44.8125 60.886719-20.992188 45.097656-47.113282 101.222656-99.621094 118.003906-10.28125 3.285157-21.0625 4.925781-32.296875 4.925781zm0 0" fill="#fbb0ff"/><path d="m39.519531 470.460938c-8.464843 0-17.007812-.390626-25.621093-1.179688-4.28125-.390625-7.433594-4.179688-7.042969-8.457031.394531-4.28125 4.191406-7.4375 8.460937-7.042969 31.824219 2.914062 62.605469.125 91.476563-8.296875 43.644531-12.730469 69.511719-34.160156 94.523437-54.886719 21.996094-18.222656 42.773438-35.4375 72.855469-43.796875 50.539063-14.039062 110.457031 2.6875 178.097656 49.722657 3.53125 2.453124 4.402344 7.300781 1.945313 10.828124-2.453125 3.527344-7.300782 4.402344-10.828125 1.949219-63.65625-44.265625-119.183594-60.246093-165.046875-47.503906-26.882813 7.46875-45.515625 22.90625-67.09375 40.785156-25.011719 20.722657-53.359375 44.210938-100.097656 57.839844-22.90625 6.683594-46.914063 10.039063-71.628907 10.039063zm0 0" fill="#87dbff"/><path d="m447.828125 512h-439.546875c-4.296875 0-7.78125-3.484375-7.78125-7.78125v-283c0-4.296875 3.484375-7.78125 7.78125-7.78125s7.78125 3.484375 7.78125 7.78125v275.21875h431.765625c4.300781 0 7.78125 3.484375 7.78125 7.78125s-3.480469 7.78125-7.78125 7.78125zm0 0" fill="#5c546a"/><path d="m109.609375 16.230469v144.824219c0 8.964843 7.265625 16.230468 16.230469 16.230468h75.296875c2.648437 0 5.191406 1.054688 7.0625 2.925782l23.761719 23.761718c3.898437 3.898438 10.222656 3.898438 14.125 0l23.757812-23.761718c1.875-1.871094 4.414062-2.925782 7.0625-2.925782h73.46875c8.964844 0 16.230469-7.265625 16.230469-16.230468v-144.824219c0-8.964844-7.265625-16.230469-16.230469-16.230469h-224.535156c-8.964844 0-16.230469 7.265625-16.230469 16.230469zm0 0" fill="#f8a28b"/><path d="m301.363281 92.003906c0 20.449219-9.710937 38.648438-24.773437 50.207032v.011718c-10.65625 8.175782-24.011719 13.039063-38.484375 13.039063-14.152344 0-27.234375-4.648438-37.773438-12.511719-15.472656-11.535156-25.484375-29.972656-25.484375-50.746094 0-34.933594 28.324219-63.257812 63.257813-63.257812 34.933593 0 63.257812 28.324218 63.257812 63.257812zm0 0" fill="#fff"/><path d="m238.105469 28.746094c-4.375 0-8.644531.445312-12.765625 1.289062 28.8125 5.910156 50.488281 31.410156 50.488281 61.96875 0 20.449219-9.710937 38.648438-24.777344 50.207032v.011718c-7.4375 5.707032-16.195312 9.792969-25.726562 11.746094 4.128906.847656 8.402343 1.292969 12.78125 1.292969 14.472656 0 27.828125-4.863281 38.484375-13.039063 0-.011718 0-.011718 0-.011718 15.0625-11.558594 24.773437-29.757813 24.773437-50.207032 0-34.933594-28.324219-63.257812-63.257812-63.257812zm0 0" fill="#eff2fa"/><path d="m276.589844 142.210938v.011718c-10.65625 8.175782-24.011719 13.039063-38.484375 13.039063-14.152344 0-27.234375-4.648438-37.773438-12.511719 2.675781-8 5.910157-13.382812 7.757813-14.835938 1.871094-1.472656 3.996094-2.648437 6.332031-3.433593l6.785156-2.285157c1.535157-.519531 2.902344-1.335937 4.035157-2.394531 2.21875-2.066406 3.558593-5.003906 3.558593-8.167969v-9.441406h18.613281v9.441406c0 2.9375 1.140626 5.675782 3.078126 7.710938h.011718c1.214844 1.273438 2.75 2.269531 4.492188 2.851562l6.785156 2.285157c6.839844 2.292969 12.886719 10.480469 14.808594 17.730469zm0 0" fill="#ffd782"/><path d="m251.609375 99.554688-8.4375 5.136718c-3.113281 1.898438-7.023437 1.898438-10.136719 0l-8.4375-5.136718c-2.90625-1.769532-4.679687-4.925782-4.679687-8.328126v-22.5625c0-6.203124 5.027343-11.234374 11.234375-11.234374h13.902344c6.203124 0 11.234374 5.03125 11.234374 11.234374v22.5625c0 3.402344-1.773437 6.558594-4.679687 8.328126zm0 0" fill="#f2a464"/></svg>