<svg height="512pt" viewBox="0 -49 512 511" width="512pt" xmlns="http://www.w3.org/2000/svg"><path d="m412.90625 33.808594h-321.554688c-4.476562 0-8.101562-3.628906-8.101562-8.101563 0-4.476562 3.625-8.101562 8.101562-8.101562h321.554688c4.476562 0 8.101562 3.625 8.101562 8.101562 0 4.472657-3.625 8.101563-8.101562 8.101563zm0 0" fill="#d7deed"/><path d="m370.640625 93.0625h88.355469v-31.007812c0-6.152344-4.988282-11.144532-11.140625-11.144532h-66.070313c-6.152344 0-11.144531 4.992188-11.144531 11.144532zm0 0" fill="#ff8000"/><path d="m461.136719 413.605469h-308.144531c-84.496094 0-152.992188-68.5-152.992188-152.996094v-24.554687c0-84.496094 68.496094-152.992188 152.992188-152.992188h308.144531c28.089843 0 50.863281 22.773438 50.863281 50.863281v228.816407c0 28.089843-22.773438 50.863281-50.863281 50.863281zm0 0" fill="#ffd782"/><path d="m461.136719 83.0625h-30c28.089843 0 50.863281 22.773438 50.863281 50.863281v228.816407c0 28.089843-22.773438 50.863281-50.863281 50.863281h30c28.089843 0 50.863281-22.773438 50.863281-50.863281v-228.816407c0-28.089843-22.773438-50.863281-50.863281-50.863281zm0 0" fill="#ffc36f"/><path d="m290.613281 248.335938c0 3.359374-.128906 6.6875-.386719 9.972656-.433593 5.507812-1.210937 10.917968-2.335937 16.203125-1.4375 6.871093-3.433594 13.535156-5.949219 19.941406-2.195312 5.605469-4.777344 11.019531-7.726562 16.203125-4.050782 7.160156-8.792969 13.890625-14.128906 20.09375-5.023438 5.855469-10.574219 11.234375-16.570313 16.0625-21.714844 17.542969-49.347656 28.042969-79.421875 28.042969s-57.707031-10.5-79.417969-28.042969c-5.996093-4.828125-11.546875-10.207031-16.5625-16.0625-5.34375-6.203125-10.089843-12.933594-14.140625-20.09375-2.949218-5.183594-5.53125-10.597656-7.722656-16.203125-2.515625-6.40625-4.515625-13.070313-5.953125-19.941406-1.121094-5.285157-1.902344-10.695313-2.332031-16.203125-.261719-3.285156-.390625-6.613282-.390625-9.972656 0-3.359376.128906-6.6875.390625-9.972657.429687-5.507812 1.210937-10.917969 2.320312-16.203125 1.449219-6.871094 3.445313-13.546875 5.964844-19.949218 2.191406-5.609376 4.773438-11.019532 7.722656-16.207032 4.050782-7.160156 8.792969-13.890625 14.128906-20.09375 5.023438-5.84375 10.566407-11.222656 16.5625-16.050781 21.710938-17.542969 49.34375-28.042969 79.429688-28.042969s57.71875 10.5 79.429688 28.042969c5.886718 4.742187 11.332031 10.011719 16.28125 15.730469 5.457031 6.285156 10.285156 13.125 14.410156 20.414062 2.949218 5.1875 5.53125 10.597656 7.722656 16.207032 2.519531 6.402343 4.515625 13.078124 5.964844 19.949218 1.113281 5.28125 1.890625 10.695313 2.320312 16.203125.261719 3.285157.390625 6.613281.390625 9.972657zm0 0" fill="#5c546a"/><path d="m473.734375 342.585938c0 17.820312-14.445313 32.269531-32.265625 32.269531-17.824219 0-32.269531-14.449219-32.269531-32.269531 0-17.820313 14.445312-32.269532 32.269531-32.269532 17.820312 0 32.265625 14.449219 32.265625 32.269532zm0 0" fill="#ff8000"/><path d="m368.796875 342.585938c0 17.820312-14.449219 32.269531-32.269531 32.269531-17.820313 0-32.265625-14.449219-32.265625-32.269531 0-17.820313 14.445312-32.269532 32.265625-32.269532 17.820312 0 32.269531 14.449219 32.269531 32.269532zm0 0" fill="#ff8000"/><g fill="#868491"><path d="m259.804688 165.589844c-.851563.3125-1.769532.472656-2.71875.472656h-187.457032c-.519531 0-1.027344-.054688-1.523437-.152344 5.023437-5.84375 10.5625-11.222656 16.558593-16.050781h158.863282c5.886718 4.742187 11.332031 10.015625 16.277344 15.730469zm0 0"/><path d="m281.941406 202.210938h-235.691406c2.191406-5.609376 4.773438-11.019532 7.722656-16.207032h220.246094c2.945312 5.1875 5.527344 10.597656 7.722656 16.207032zm0 0"/><path d="m290.226562 238.363281h-252.261718c.433594-5.507812 1.210937-10.917969 2.320312-16.203125h247.617188c1.113281 5.285156 1.890625 10.695313 2.324218 16.203125zm0 0"/><path d="m290.226562 258.308594c-.433593 5.507812-1.210937 10.917968-2.335937 16.203125h-247.589844c-1.125-5.285157-1.902343-10.695313-2.335937-16.203125zm0 0"/><path d="m281.941406 294.453125c-2.195312 5.605469-4.777344 11.019531-7.722656 16.203125h-220.246094c-2.949218-5.183594-5.53125-10.597656-7.722656-16.203125zm0 0"/><path d="m260.085938 330.75c-5.023438 5.855469-10.574219 11.234375-16.570313 16.0625h-158.839844c-5.996093-4.828125-11.546875-10.207031-16.5625-16.0625.488281-.097656.984375-.140625 1.503907-.140625h189c.507812 0 .992187.042969 1.46875.140625zm0 0"/></g><path d="m446.960938 50.910156h-27.839844c6.648437 0 12.039062 5.390625 12.039062 12.039063v20.113281h27.835938v-20.113281c0-6.648438-5.386719-12.039063-12.035156-12.039063zm0 0" fill="#ff5f06"/><path d="m438.832031 50.910156h-51.851562v-26.410156c0-13.253906 10.746093-24 24-24h3.851562c13.257813 0 24 10.746094 24 24zm0 0" fill="#5c546a"/><path d="m412.90625.5c-4.539062 0-8.800781 1.167969-12.511719 3.21875 7.996094 4.414062 13.414063 12.925781 13.414063 22.707031v24.484375h25.023437v-24.484375c0-14.316406-11.605469-25.925781-25.925781-25.925781zm0 0" fill="#4f495b"/><path d="m443.863281 276.347656h-4.792969c-16.496093 0-29.871093-13.375-29.871093-29.871094v-94.792968c0-16.496094 13.375-29.871094 29.871093-29.871094h4.792969c16.5 0 29.871094 13.375 29.871094 29.871094v94.792968c0 16.496094-13.371094 29.871094-29.871094 29.871094zm0 0" fill="#5c546a"/><path d="m441.46875 254.578125c-4.476562 0-8.105469-3.625-8.105469-8.101563v-92.261718c0-4.476563 3.628907-8.105469 8.105469-8.105469 4.472656 0 8.101562 3.628906 8.101562 8.105469v92.261718c0 4.476563-3.628906 8.101563-8.101562 8.101563zm0 0" fill="#fff"/><path d="m441.46875 189.726562h-13.078125c-4.476563 0-8.101563-3.628906-8.101563-8.105468 0-4.472656 3.625-8.101563 8.101563-8.101563h13.078125c4.472656 0 8.101562 3.628907 8.101562 8.101563 0 4.476562-3.628906 8.105468-8.101562 8.105468zm0 0" fill="#fff"/></svg>