<svg height="512pt" viewBox="-10 0 511 512" width="512pt" xmlns="http://www.w3.org/2000/svg"><path d="m464.964844 327.730469h-438.851563c-14.144531 0-25.613281-11.46875-25.613281-25.613281v-276.503907c0-14.144531 11.46875-25.613281 25.613281-25.613281h438.851563c14.144531 0 25.609375 11.46875 25.609375 25.613281v276.503907c0 14.144531-11.464844 25.613281-25.609375 25.613281zm0 0" fill="#5c546a"/><path d="m55.789062 28.984375h379.5v269.761719h-379.5zm0 0" fill="#fff"/><path d="m285.339844 163.863281h-79.601563c-6.179687 0-11.1875-5.007812-11.1875-11.1875v-79.601562c0-6.175781 5.007813-11.183594 11.1875-11.183594h79.601563c6.175781 0 11.1875 5.007813 11.1875 11.183594v79.605469c0 6.175781-5.011719 11.183593-11.1875 11.183593zm0 0" fill="#ffd782"/><path d="m270.425781 163.863281h-51.414062v-14.527343c0-7.992188 6.480469-14.472657 14.472656-14.472657h22.464844c7.996093 0 14.476562 6.480469 14.476562 14.472657zm0 0" fill="#fff7d2"/><path d="m259.921875 97.675781c0 8.394531-6.808594 15.203125-15.203125 15.203125-8.398438 0-15.203125-6.808594-15.203125-15.203125 0-8.398437 6.804687-15.203125 15.203125-15.203125 8.394531 0 15.203125 6.804688 15.203125 15.203125zm0 0" fill="#fff"/><path d="m424.101562 163.863281h-79.601562c-6.179688 0-11.1875-5.007812-11.1875-11.1875v-79.601562c0-6.175781 5.007812-11.183594 11.1875-11.183594h79.601562c6.175782 0 11.1875 5.007813 11.1875 11.183594v79.605469c0 6.175781-5.007812 11.183593-11.1875 11.183593zm0 0" fill="#57afff"/><path d="m409.1875 163.863281h-51.414062v-14.527343c0-7.992188 6.480468-14.472657 14.472656-14.472657h22.46875c7.992187 0 14.472656 6.480469 14.472656 14.472657zm0 0" fill="#c7f1ff"/><path d="m398.683594 97.675781c0 8.394531-6.808594 15.203125-15.203125 15.203125-8.398438 0-15.203125-6.808594-15.203125-15.203125 0-8.398437 6.804687-15.203125 15.203125-15.203125 8.394531 0 15.203125 6.804688 15.203125 15.203125zm0 0" fill="#fff"/><path d="m146.578125 163.863281h-79.601563c-6.179687 0-11.1875-5.007812-11.1875-11.1875v-79.601562c0-6.175781 5.007813-11.183594 11.1875-11.183594h79.601563c6.175781 0 11.1875 5.007813 11.1875 11.183594v79.605469c-.003906 6.175781-5.011719 11.183593-11.1875 11.183593zm0 0" fill="#5ed4cd"/><path d="m131.664062 163.863281h-51.417968v-14.527343c0-7.992188 6.484375-14.472657 14.476562-14.472657h22.464844c7.996094 0 14.476562 6.480469 14.476562 14.472657zm0 0" fill="#cafff0"/><path d="m121.160156 97.675781c0 8.394531-6.808594 15.203125-15.203125 15.203125-8.398437 0-15.203125-6.808594-15.203125-15.203125 0-8.398437 6.804688-15.203125 15.203125-15.203125 8.394531 0 15.203125 6.804688 15.203125 15.203125zm0 0" fill="#fff"/><path d="m29.464844 187.339844c-4.246094 0-7.683594-3.4375-7.683594-7.679688v-31.589844c0-4.246093 3.4375-7.683593 7.683594-7.683593 4.242187 0 7.679687 3.4375 7.679687 7.683593v31.589844c0 4.242188-3.4375 7.679688-7.679687 7.679688zm0 0" fill="#4f495b"/><path d="m471.117188 163.863281c0 4.242188-3.4375 7.683594-7.679688 7.683594s-7.683594-3.441406-7.683594-7.683594c0-4.242187 3.441406-7.679687 7.683594-7.679687s7.679688 3.4375 7.679688 7.679687zm0 0" fill="#4f495b"/><path d="m358.222656 354.4375v82.28125c0 8.027344-2.492187 15.933594-7.457031 22.242188-5.105469 6.480468-7.875 14.484374-7.875 22.71875v9.597656c0 3.367187-1.90625 6.460937-4.941406 7.914062-17.175781 8.214844-36.40625 12.808594-56.707031 12.808594-11.421876 0-22.496094-1.453125-33.058594-4.183594-3.882813-1.007812-6.597656-4.511718-6.597656-8.523437l-.707032-21.550781c-.820312-5.132813-2.347656-10.117188-4.539062-14.804688-2.195313-4.691406-5.042969-9.089844-8.503906-13.046875-8.863282-10.140625-13.75-23.152344-13.75-36.617187v-56.472657c0-10.890625 3.988281-21.386719 11.183593-29.507812.46875-.535157.960938-1.066407 1.460938-1.578125l8.703125-8.929688.144531-.144531v-100.351563c0-7.3125 5.570313-13.621093 12.871094-14.054687 7.808593-.460937 14.332031 5.613281 14.539062 13.316406l.921875 34.328125 1.515625 56.351563c.085938-1.269531.375-2.628907.8125-3.976563.972657-3.011718 2.6875-5.972656 4.492188-7.777344 1.617187-1.625 3.605469-2.878906 5.816406-3.648437 1.796875-.625 3.742187-.921875 5.777344-.824219 8.238281.394532 14.574219 7.488282 14.574219 15.734375v21.824219c0-4.234375 1.714843-8.0625 4.492187-10.84375 1.621094-1.617188 3.605469-2.875 5.816406-3.632812 1.800781-.636719 3.75-.933594 5.785157-.835938 8.234374.398438 14.566406 7.484375 14.566406 15.726562v26.039063c0-6.707031 4.308594-12.40625 10.308594-14.488281 1.796874-.625 3.746093-.921875 5.777343-.824219 8.242188.394531 14.578125 7.484375 14.578125 15.734375zm0 0" fill="#fdd7bd"/><g fill="#fac5aa"><path d="m337.871094 339.527344v51.34375c0 5.691406-4.617188 10.308594-10.308594 10.308594v-47.164063c0-6.707031 4.304688-12.40625 10.308594-14.488281zm0 0"/><path d="m307.210938 313.082031v55.546875c0 5.691406-4.617188 10.308594-10.3125 10.308594v-51.375c0-4.238281 1.714843-8.066406 4.496093-10.84375 1.617188-1.617188 3.601563-2.875 5.816407-3.636719zm0 0"/><path d="m276.546875 290.828125v46.984375c0 5.695312-4.613281 10.300781-10.308594 10.300781v-45.859375c.976563-3.011718 2.691407-5.972656 4.496094-7.777344 1.617187-1.625 3.601563-2.878906 5.8125-3.648437zm0 0"/><path d="m235.578125 316.976562v57.597657c-5.691406 0-10.308594-4.617188-10.308594-10.308594v-36.972656c.472657-.535157.960938-1.066407 1.464844-1.578125l8.703125-8.929688zm0 0"/></g></svg>