<svg height="512pt" viewBox="0 0 512 512" width="512pt" xmlns="http://www.w3.org/2000/svg"><path d="m184.351562 162.5h-11.238281c-10.984375 0-19.890625-8.90625-19.890625-19.890625v-11.875c0-10.988281 8.90625-19.894531 19.890625-19.894531h11.238281zm0 0" fill="#fac5aa"/><path d="m329.863281 162.5h11.238281c10.984376 0 19.890626-8.90625 19.890626-19.890625v-11.875c0-10.988281-8.90625-19.894531-19.890626-19.894531h-11.238281zm0 0" fill="#fabaa1"/><path d="m428.210938 427.539062h-343.648438c-9.417969 0-16.316406-8.863281-14.003906-17.996093l15.949218-62.957031c4.820313-19.027344 18.703126-34.460938 37.113282-41.261719l116.316406-42.964844c10.617188-3.921875 22.285156-3.921875 32.898438 0l116.316406 42.964844c18.410156 6.800781 32.292968 22.234375 37.113281 41.261719l15.949219 62.957031c2.3125 9.128906-4.585938 17.996093-14.003906 17.996093zm0 0" fill="#87dbff"/><path d="m442.214844 409.542969-15.949219-62.960938c-4.820313-19.023437-18.699219-34.457031-37.113281-41.257812l-116.3125-42.96875c-10.617188-3.921875-22.285156-3.921875-32.902344 0l-2.746094 1.015625 113.570313 41.953125c18.414062 6.800781 32.292969 22.234375 37.113281 41.257812l15.949219 62.960938c2.3125 9.128906-4.585938 17.996093-14.003907 17.996093h38.390626c9.417968 0 16.316406-8.867187 14.003906-17.996093zm0 0" fill="#6fc7ff"/><g fill="#57afff"><path d="m211.230469 272.960938-31.625 11.683593 35.109375 34.914063c4.941406 4.914062 12.839844 5.164062 18.078125.574218l23.59375-20.667968zm0 0"/><path d="m301.148438 272.816406 32.019531 11.828125-36.238281 34.996094c-5.03125 4.859375-12.972657 4.972656-18.140626.257813l-22.402343-20.433594zm0 0"/><path d="m256.386719 408.558594c-3.648438 0-6.605469-2.957032-6.605469-6.609375v-70.433594c0-3.652344 2.957031-6.609375 6.605469-6.609375 3.648437 0 6.605469 2.957031 6.605469 6.609375v70.433594c0 3.648437-2.957032 6.609375-6.605469 6.609375zm0 0"/></g><path d="m301.148438 272.816406v-50.117187h-89.917969v50.261719l45.15625 26.503906zm0 0" fill="#fabaa1"/><path d="m342.050781 84.738281c0 2.921875-.148437 5.867188-.457031 8.84375l-1.285156 17.257813-6.429688 85.632812c-1.789062 17.320313-13.523437 32.011719-30.003906 37.578125l-13.554688 4.570313-19.953124 6.730468c-9.398438 3.179688-19.582032 3.121094-28.945313-.164062l-31.277344-10.96875c-16.214843-5.691406-27.703125-20.222656-29.507812-37.3125l-6.582031-86.066406-1.304688-17.089844c-4.746094-45.195312 26.742188-85.117188 69.921875-92.515625 1.171875-.210937 2.363281-.386719 3.550781-.539063.609375-.078124 1.214844-.148437 1.824219-.210937.378906-.042969.75-.078125 1.128906-.113281.316407-.027344.640625-.0625.96875-.089844.332031-.023438.675781-.050781 1.011719-.066406.421875-.035156.847656-.0625 1.277344-.082032.175781-.007812.34375-.015624.519531-.023437.492187-.0273438.996094-.046875 1.507813-.0625.210937-.0117188.421874-.0195312.640624-.0195312.6875-.0195313 1.375-.0273438 2.0625-.0273438 47.328126 0 84.886719 38.511719 84.886719 84.738281zm0 0" fill="#fdd7bd"/><path d="m342.050781 84.738281c0 2.921875-.148437 5.867188-.457031 8.84375l-1.285156 17.257813-6.429688 85.632812c-1.789062 17.320313-13.523437 32.011719-30.003906 37.578125l-13.554688 4.570313c8.09375-7.230469 13.421876-17.351563 14.585938-28.574219l6.429688-99.207031 1.285156-17.257813c.308594-2.976562.457031-5.917969.457031-8.84375 0-41.390625-30.125-76.597656-70.402344-83.503906 1.179688-.203125 2.359375-.378906 3.546875-.539063.609375-.078124 1.21875-.148437 1.824219-.210937.378906-.042969.75-.078125 1.128906-.113281.316407-.027344.640625-.0625.96875-.089844.335938-.023438.675781-.050781 1.011719-.070312.421875-.035157.847656-.0625 1.277344-.078126.175781-.007812.34375-.019531.519531-.027343.492187-.0234378.996094-.042969 1.507813-.058594.210937-.0117188.421874-.0195312.640624-.0195312.6875-.0195313 1.375-.0273438 2.0625-.0273438 47.328126 0 84.886719 38.511719 84.886719 84.738281zm0 0" fill="#fac5aa"/><path d="m342.050781 84.738281c0 2.921875-.148437 5.867188-.457031 8.84375l-1.285156 17.257813h-25.863282c-12.597656-.6875-33.347656-3.4375-56.171874-14.492188-17.578126-8.511718-30.34375-19.03125-38.769532-27.28125-1.242187-1.21875-3.335937-.640625-3.769531 1.046875-1.710937 6.65625-5.898437 17.945313-16.34375 27.519531-9.726563 8.910157-20.1875 12.035157-25.335937 13.207032l-1.300782-17.089844c-5.269531-50.121094 34.023438-93.75 84.410156-93.75 47.328126 0 84.886719 38.511719 84.886719 84.738281zm0 0" fill="#5c546a"/><path d="m257.164062 0c-4.945312 0-9.785156.425781-14.484374 1.230469 40.28125 6.910156 70.398437 42.113281 70.398437 83.507812 0 2.921875-.148437 5.863281-.457031 8.84375l-1.269532 17.050781c1.074219.078126 2.117188.148438 3.09375.203126h25.863282l1.285156-17.253907c.308594-2.976562.457031-5.921875.457031-8.84375 0-46.226562-37.558593-84.738281-84.886719-84.738281zm0 0" fill="#4f495b"/><path d="m228.191406 137.171875c0 4.257813-3.449218 7.710937-7.707031 7.710937s-7.710937-3.453124-7.710937-7.710937 3.453124-7.707031 7.710937-7.707031 7.707031 3.449218 7.707031 7.707031zm0 0" fill="#5c546a"/><path d="m296.652344 137.171875c0 4.257813-3.449219 7.710937-7.707032 7.710937-4.257812 0-7.710937-3.453124-7.710937-7.710937s3.453125-7.707031 7.710937-7.707031c4.257813 0 7.707032 3.449218 7.707032 7.707031zm0 0" fill="#5c546a"/><path d="m285.050781 193.09375c-1.976562-3.066406-6.0625-3.949219-9.132812-1.972656-5.027344 3.238281-10.601563 5.148437-16.191407 5.59375l-5.097656.007812c-6.886718-.546875-12.484375-3.199218-16.164062-5.535156-3.082032-1.957031-7.164063-1.042969-9.117188 2.035156-1.957031 3.082032-1.042968 7.164063 2.039063 9.121094 5.632812 3.574219 14.570312 7.703125 25.785156 7.703125.628906 0 1.265625-.011719 1.90625-.039063 8.339844-.347656 16.636719-3.039062 23.996094-7.78125 3.070312-1.976562 3.953125-6.066406 1.976562-9.132812zm0 0" fill="#5c546a"/><path d="m63.769531 355.589844c-4.394531 0-7.960937-3.566406-7.960937-7.960938v-42.261718c0-9.898438 4.46875-19.070313 12.261718-25.171876l53.347657-42.578124c3.4375-2.746094 8.445312-2.183594 11.191406 1.253906 2.742187 3.4375 2.179687 8.445312-1.257813 11.1875l-53.40625 42.628906c-3.96875 3.109375-6.210937 7.710938-6.210937 12.679688v42.261718c0 4.394532-3.566406 7.960938-7.964844 7.960938zm0 0" fill="#868491"/><path d="m499.195312 455.433594h-487.265624c-6.589844 0-11.929688-5.339844-11.929688-11.929688v-50.257812c0-6.589844 5.34375-11.929688 11.929688-11.929688h487.265624c6.589844 0 11.929688 5.339844 11.929688 11.929688v50.257812c0 6.589844-5.339844 11.929688-11.929688 11.929688zm0 0" fill="#e6be94"/><path d="m42.058594 512v-56.507812h427.007812v56.507812" fill="#f7cda9"/><path d="m42.058594 455.492188v28.253906h371.53125c15.601562 0 28.253906 12.648437 28.253906 28.253906h27.222656v-56.503906h-427.007812zm0 0" fill="#ddb08c"/><path d="m90.308594 381.316406h-53.078125v-21.890625c0-6.515625 5.28125-11.796875 11.796875-11.796875h29.488281c6.515625 0 11.796875 5.277344 11.796875 11.796875v21.890625zm0 0" fill="#5c546a"/><path d="m126.859375 244.457031-.949219-1.238281c-4.25-5.546875-3.195312-13.492188 2.355469-17.738281l14.179687-10.859375c5.550782-4.25 13.492188-3.195313 17.742188 2.351562l.949219 1.238282c4.25 5.550781 3.195312 13.492187-2.355469 17.742187l-14.179688 10.859375c-5.550781 4.246094-13.492187 3.195312-17.742187-2.355469zm0 0" fill="#5c546a"/></svg>