<svg height="512pt" viewBox="0 -11 512 512" width="512pt" xmlns="http://www.w3.org/2000/svg"><path d="m512 29.988281v429.21875c0 16.5625-13.417969 29.988281-29.988281 29.988281h-452.023438c-16.570312 0-29.988281-13.425781-29.988281-29.988281v-429.21875c0-16.558593 13.417969-29.988281 29.988281-29.988281h452.023438c16.570312 0 29.988281 13.429688 29.988281 29.988281zm0 0" fill="#eff2fa"/><path d="m482.011719 0h-71.953125c16.570312 0 29.988281 13.429688 29.988281 29.988281v429.21875c0 16.5625-13.417969 29.988281-29.988281 29.988281h71.953125c16.570312 0 29.988281-13.425781 29.988281-29.988281v-429.21875c0-16.558593-13.417969-29.988281-29.988281-29.988281zm0 0" fill="#d7deed"/><path d="m512 29.988281v99.390625h-512v-99.390625c0-16.558593 13.417969-29.988281 29.988281-29.988281h452.023438c16.570312 0 29.988281 13.429688 29.988281 29.988281zm0 0" fill="#5c546a"/><path d="m482.011719 0h-71.953125c16.570312 0 29.988281 13.429688 29.988281 29.988281v99.390625h71.953125v-99.390625c0-16.558593-13.417969-29.988281-29.988281-29.988281zm0 0" fill="#4f495b"/><path d="m329.359375 83.296875h-146.71875c-9.71875 0-17.597656-7.878906-17.597656-17.597656v-1.1875c0-9.71875 7.878906-17.597657 17.597656-17.597657h146.71875c9.71875 0 17.597656 7.878907 17.597656 17.597657v1.1875c.003907 9.71875-7.878906 17.597656-17.597656 17.597656zm0 0" fill="#fff"/><path d="m106.207031 83.296875h-1.1875c-9.71875 0-17.597656-7.878906-17.597656-17.597656v-1.1875c0-9.71875 7.878906-17.597657 17.597656-17.597657h1.1875c9.71875 0 17.597657 7.878907 17.597657 17.597657v1.1875c0 9.71875-7.878907 17.597656-17.597657 17.597656zm0 0" fill="#ffd782"/><path d="m408.65625 83.296875h-1.183594c-9.71875 0-17.601562-7.878906-17.601562-17.597656v-1.1875c0-9.71875 7.882812-17.597657 17.601562-17.597657h1.183594c9.722656 0 17.601562 7.878907 17.601562 17.597657v1.1875c0 9.71875-7.878906 17.597656-17.601562 17.597656zm0 0" fill="#ffd782"/><path d="m258.394531 371.996094h-6c-49.148437 0-88.992187-39.839844-88.992187-88.988282v-6c0-49.148437 39.84375-88.992187 88.992187-88.992187h6c49.148438 0 88.988281 39.84375 88.988281 88.992187v6c0 49.148438-39.839843 88.988282-88.988281 88.988282zm0 0" fill="#5ed4cd"/><path d="m259.894531 316.683594c-3.988281 0-7.8125-1.582032-10.632812-4.402344l-31.914063-31.914062c-5.871094-5.875-5.871094-15.394532 0-21.265626 5.875-5.875 15.394532-5.875 21.265625 0l21.285157 21.28125 89.242187-87.960937c5.875-5.875 15.394531-5.875 21.265625 0 5.871094 5.871094 5.871094 15.390625 0 21.265625l-99.875 98.59375c-2.820312 2.820312-6.644531 4.402344-10.636719 4.402344zm0 0" fill="#2fa39b"/><g fill="#c7cfe2"><path d="m344.875 418.203125h-178.960938c-4.28125 0-7.753906-3.472656-7.753906-7.753906s3.472656-7.753907 7.753906-7.753907h178.960938c4.28125 0 7.753906 3.472657 7.753906 7.753907s-3.472656 7.753906-7.753906 7.753906zm0 0"/><path d="m299.070312 453.84375h-87.355468c-4.28125 0-7.75-3.472656-7.75-7.753906s3.46875-7.753906 7.75-7.753906h87.355468c4.285157 0 7.753907 3.472656 7.753907 7.753906s-3.46875 7.753906-7.753907 7.753906zm0 0"/></g></svg>