<svg height="512pt" viewBox="-94 0 511 512" width="512pt" xmlns="http://www.w3.org/2000/svg"><path d="m122.277344 512h-103.855469c-9.898437 0-17.921875-8.023438-17.921875-17.921875v-103.855469c0-9.898437 8.023438-17.921875 17.921875-17.921875h103.855469c9.898437 0 17.921875 8.023438 17.921875 17.921875v103.855469c0 9.898437-8.023438 17.921875-17.921875 17.921875zm0 0" fill="#2fa39b"/><path d="m305.164062 512h-103.855468c-9.898438 0-17.921875-8.023438-17.921875-17.921875v-103.855469c0-9.898437 8.023437-17.921875 17.921875-17.921875h103.855468c9.898438 0 17.921876 8.023438 17.921876 17.921875v103.855469c0 9.898437-8.023438 17.921875-17.921876 17.921875zm0 0" fill="#ff4a4a"/><path d="m52.734375 474.566406c-2.046875 0-4.007813-.8125-5.457031-2.257812l-14.167969-14.167969c-3.015625-3.015625-3.015625-7.902344 0-10.917969 3.015625-3.011718 7.902344-3.011718 10.917969 0l8.710937 8.710938 43.9375-43.941406c3.015625-3.011719 7.902344-3.011719 10.917969 0 3.011719 3.015624 3.011719 7.902343 0 10.917968l-49.398438 49.398438c-1.449218 1.445312-3.414062 2.257812-5.460937 2.257812zm0 0" fill="#fff"/><path d="m224.371094 478.734375c-1.976563 0-3.949219-.753906-5.457032-2.261719-3.015624-3.011718-3.015624-7.898437 0-10.914062l57.730469-57.734375c3.015625-3.011719 7.902344-3.011719 10.917969 0 3.011719 3.015625 3.011719 7.902343 0 10.917969l-57.734375 57.730468c-1.507813 1.507813-3.480469 2.261719-5.457031 2.261719zm0 0" fill="#fff"/><path d="m282.101562 478.734375c-1.976562 0-3.953124-.753906-5.457031-2.261719l-57.734375-57.730468c-3.011718-3.015626-3.011718-7.898438 0-10.917969 3.015625-3.011719 7.902344-3.011719 10.917969 0l57.730469 57.734375c3.015625 3.011718 3.015625 7.898437 0 10.914062-1.507813 1.507813-3.484375 2.261719-5.457032 2.261719zm0 0" fill="#fff"/><g fill="#5ed4cd"><path d="m128.933594 341.503906h-117.167969c-6.222656 0-11.265625-5.042968-11.265625-11.265625v-9.714843c0-6.222657 5.042969-11.265626 11.265625-11.265626h117.167969c6.222656 0 11.265625 5.042969 11.265625 11.265626v9.714843c0 6.222657-5.042969 11.265625-11.265625 11.265625zm0 0"/><path d="m128.933594 279.652344h-117.167969c-6.222656 0-11.265625-5.042969-11.265625-11.265625v-9.714844c0-6.222656 5.042969-11.265625 11.265625-11.265625h117.167969c6.222656 0 11.265625 5.042969 11.265625 11.265625v9.714844c0 6.222656-5.042969 11.265625-11.265625 11.265625zm0 0"/><path d="m128.933594 217.800781h-117.167969c-6.222656 0-11.265625-5.042969-11.265625-11.265625v-9.714844c0-6.222656 5.042969-11.265624 11.265625-11.265624h117.167969c6.222656 0 11.265625 5.042968 11.265625 11.265624v9.714844c0 6.222656-5.042969 11.265625-11.265625 11.265625zm0 0"/><path d="m128.933594 94.097656h-117.167969c-6.222656 0-11.265625-5.042968-11.265625-11.265625v-9.714843c0-6.222657 5.042969-11.265626 11.265625-11.265626h117.167969c6.222656 0 11.265625 5.042969 11.265625 11.265626v9.714843c0 6.222657-5.042969 11.265625-11.265625 11.265625zm0 0"/><path d="m128.933594 155.949219h-117.167969c-6.222656 0-11.265625-5.042969-11.265625-11.265625v-9.714844c0-6.222656 5.042969-11.265625 11.265625-11.265625h117.167969c6.222656 0 11.265625 5.042969 11.265625 11.265625v9.714844c0 6.222656-5.042969 11.265625-11.265625 11.265625zm0 0"/><path d="m128.933594 32.246094h-117.167969c-6.222656 0-11.265625-5.042969-11.265625-11.265625v-9.714844c0-6.222656 5.046875-11.265625 11.265625-11.265625h117.167969c6.222656 0 11.265625 5.042969 11.265625 11.265625v9.714844c0 6.222656-5.042969 11.265625-11.265625 11.265625zm0 0"/></g><path d="m128.605469 309.257812h-41.679688c6.402344 0 11.59375 5.191407 11.59375 11.59375v9.058594c0 6.402344-5.191406 11.59375-11.59375 11.59375h41.679688c6.402343 0 11.59375-5.191406 11.59375-11.59375v-9.058594c0-6.402343-5.191407-11.59375-11.59375-11.59375zm0 0" fill="#4bc4bb"/><path d="m128.605469 247.40625h-41.679688c6.402344 0 11.59375 5.191406 11.59375 11.597656v9.054688c0 6.402344-5.191406 11.59375-11.59375 11.59375h41.679688c6.402343 0 11.59375-5.191406 11.59375-11.59375v-9.054688c0-6.40625-5.191407-11.597656-11.59375-11.597656zm0 0" fill="#4bc4bb"/><path d="m128.605469 185.554688h-41.679688c6.402344 0 11.59375 5.191406 11.59375 11.59375v9.058593c0 6.402344-5.191406 11.59375-11.59375 11.59375h41.679688c6.402343 0 11.59375-5.191406 11.59375-11.59375v-9.058593c0-6.402344-5.191407-11.59375-11.59375-11.59375zm0 0" fill="#4bc4bb"/><path d="m128.605469 61.851562h-41.679688c6.402344 0 11.59375 5.191407 11.59375 11.59375v9.058594c0 6.402344-5.191406 11.59375-11.59375 11.59375h41.679688c6.402343 0 11.59375-5.191406 11.59375-11.59375v-9.058594c0-6.402343-5.191407-11.59375-11.59375-11.59375zm0 0" fill="#4bc4bb"/><path d="m128.605469 123.703125h-41.679688c6.402344 0 11.59375 5.191406 11.59375 11.59375v9.058594c0 6.402343-5.191406 11.59375-11.59375 11.59375h41.679688c6.402343 0 11.59375-5.191407 11.59375-11.59375v-9.058594c0-6.402344-5.191407-11.59375-11.59375-11.59375zm0 0" fill="#4bc4bb"/><path d="m128.605469 0h-41.679688c6.402344 0 11.59375 5.191406 11.59375 11.59375v9.058594c0 6.402344-5.191406 11.59375-11.59375 11.59375h41.679688c6.402343 0 11.59375-5.191406 11.59375-11.59375v-9.058594c0-6.402344-5.191407-11.59375-11.59375-11.59375zm0 0" fill="#4bc4bb"/><path d="m311.820312 341.503906h-117.167968c-6.222656 0-11.265625-5.042968-11.265625-11.265625v-9.714843c0-6.222657 5.042969-11.265626 11.265625-11.265626h117.167968c6.222657 0 11.265626 5.042969 11.265626 11.265626v9.714843c0 6.222657-5.042969 11.265625-11.265626 11.265625zm0 0" fill="#f8a28b"/><path d="m311.820312 279.652344h-117.167968c-6.222656 0-11.265625-5.042969-11.265625-11.265625v-9.714844c0-6.222656 5.042969-11.265625 11.265625-11.265625h117.167968c6.222657 0 11.265626 5.042969 11.265626 11.265625v9.714844c0 6.222656-5.042969 11.265625-11.265626 11.265625zm0 0" fill="#f8a28b"/><path d="m311.820312 217.800781h-117.167968c-6.222656 0-11.265625-5.042969-11.265625-11.265625v-9.714844c0-6.222656 5.042969-11.265624 11.265625-11.265624h117.167968c6.222657 0 11.265626 5.042968 11.265626 11.265624v9.714844c0 6.222656-5.042969 11.265625-11.265626 11.265625zm0 0" fill="#f8a28b"/><path d="m311.488281 309.257812h-36.582031c6.402344 0 11.59375 5.191407 11.59375 11.59375v9.058594c0 6.402344-5.191406 11.59375-11.59375 11.59375h36.582031c6.40625 0 11.597657-5.191406 11.597657-11.59375v-9.058594c0-6.402343-5.191407-11.59375-11.597657-11.59375zm0 0" fill="#f58c79"/><path d="m311.488281 247.40625h-36.582031c6.402344 0 11.59375 5.191406 11.59375 11.597656v9.054688c0 6.402344-5.191406 11.59375-11.59375 11.59375h36.582031c6.40625 0 11.597657-5.191406 11.597657-11.59375v-9.054688c0-6.40625-5.191407-11.597656-11.597657-11.597656zm0 0" fill="#f58c79"/><path d="m311.488281 185.554688h-36.582031c6.402344 0 11.59375 5.191406 11.59375 11.59375v9.058593c0 6.402344-5.191406 11.59375-11.59375 11.59375h36.582031c6.40625 0 11.597657-5.191406 11.597657-11.59375v-9.058593c0-6.402344-5.191407-11.59375-11.597657-11.59375zm0 0" fill="#f58c79"/></svg>