<svg height="512pt" viewBox="0 0 512 512" width="512pt" xmlns="http://www.w3.org/2000/svg"><path d="m279.5625 124.3125h-47.125c-4.472656 0-8.097656-3.625-8.097656-8.09375 0-4.472656 3.625-8.097656 8.097656-8.097656h47.125c4.472656 0 8.09375 3.625 8.09375 8.097656 0 4.46875-3.621094 8.09375-8.09375 8.09375zm0 0" fill="#d7deed"/><path d="m279.5625 403.703125h-47.125c-4.472656 0-8.097656-3.625-8.097656-8.09375 0-4.472656 3.625-8.09375 8.097656-8.09375h47.125c4.472656 0 8.09375 3.621094 8.09375 8.09375 0 4.46875-3.621094 8.09375-8.09375 8.09375zm0 0" fill="#d7deed"/><path d="m512 116.21875c0 64.1875-52.035156 116.21875-116.21875 116.21875-64.1875 0-116.21875-52.03125-116.21875-116.21875 0-64.183594 52.03125-116.21875 116.21875-116.21875 64.183594 0 116.21875 52.035156 116.21875 116.21875zm0 0" fill="#cafff0"/><path d="m395.78125 0c-6.902344 0-13.660156.605469-20.230469 1.757812 54.539063 9.578126 95.984375 57.175782 95.984375 114.460938s-41.445312 104.886719-95.984375 114.460938c6.570313 1.152343 13.328125 1.757812 20.230469 1.757812 64.1875 0 116.21875-52.035156 116.21875-116.21875 0-64.1875-52.03125-116.21875-116.21875-116.21875zm0 0" fill="#aaf2e4"/><path d="m378.769531 152.925781c-2.074219 0-4.144531-.789062-5.726562-2.367187l-28.019531-28.023438c-3.164063-3.164062-3.164063-8.289062 0-11.449218 3.160156-3.160157 8.285156-3.160157 11.449218 0l22.296875 22.300781 56.324219-56.328125c3.164062-3.160156 8.289062-3.160156 11.449219 0 3.160156 3.164062 3.160156 8.289062 0 11.449218l-62.050781 62.050782c-1.582032 1.578125-3.652344 2.367187-5.722657 2.367187zm0 0" fill="#5ed4cd"/><path d="m232.4375 116.21875c0 64.1875-52.035156 116.21875-116.21875 116.21875-64.1875 0-116.21875-52.03125-116.21875-116.21875 0-64.183594 52.03125-116.21875 116.21875-116.21875 64.183594 0 116.21875 52.035156 116.21875 116.21875zm0 0" fill="#ffd782"/><path d="m116.222656 193.0625c-24.757812 0-48.148437-12.042969-62.558594-32.207031-2.601562-3.636719-1.757812-8.695313 1.875-11.292969 3.640626-2.597656 8.695313-1.757812 11.296876 1.878906 11.378906 15.921875 29.84375 25.429688 49.386718 25.429688 19.539063 0 37.996094-9.507813 49.378906-25.429688 2.597657-3.636718 7.652344-4.480468 11.292969-1.878906 3.632813 2.597656 4.476563 7.65625 1.875 11.292969-14.410156 20.164062-37.792969 32.207031-62.546875 32.207031zm0 0" fill="#ff8000"/><path d="m512 395.609375c0 64.183594-52.035156 116.21875-116.21875 116.21875-64.1875 0-116.21875-52.035156-116.21875-116.21875 0-64.1875 52.03125-116.21875 116.21875-116.21875 64.183594 0 116.21875 52.03125 116.21875 116.21875zm0 0" fill="#fff7d2"/><path d="m395.78125 279.390625c-7.4375 0-14.710938.707031-21.761719 2.042969 53.785157 10.1875 94.457031 57.429687 94.457031 114.175781s-40.671874 103.984375-94.457031 114.175781c7.050781 1.335938 14.324219 2.042969 21.761719 2.042969 64.1875 0 116.21875-52.035156 116.21875-116.21875s-52.03125-116.21875-116.21875-116.21875zm0 0" fill="#f9ecb7"/><path d="m232.4375 395.609375c0 64.183594-52.035156 116.21875-116.21875 116.21875-64.1875 0-116.21875-52.035156-116.21875-116.21875 0-64.1875 52.03125-116.21875 116.21875-116.21875 64.183594 0 116.21875 52.03125 116.21875 116.21875zm0 0" fill="#f8a28b"/><path d="m360.355469 439.132812c-2.070313 0-4.144531-.792968-5.722657-2.371093-3.164062-3.164063-3.164062-8.289063 0-11.449219l70.851563-70.855469c3.160156-3.160156 8.285156-3.160156 11.449219 0 3.160156 3.164063 3.160156 8.289063 0 11.449219l-70.855469 70.855469c-1.582031 1.578125-3.652344 2.371093-5.722656 2.371093zm0 0" fill="#ffc36f"/><path d="m431.207031 439.132812c-2.070312 0-4.140625-.792968-5.722656-2.371093l-70.851563-70.855469c-3.164062-3.160156-3.164062-8.285156 0-11.449219 3.160157-3.160156 8.285157-3.160156 11.445313 0l70.855469 70.855469c3.160156 3.160156 3.160156 8.285156 0 11.449219-1.582032 1.578125-3.65625 2.371093-5.726563 2.371093zm0 0" fill="#ffc36f"/><path d="m153.097656 463.453125c-2.523437 0-5.011718-1.179687-6.59375-3.390625-6.980468-9.765625-18.304687-15.597656-30.289062-15.597656s-23.304688 5.832031-30.285156 15.597656c-2.601563 3.636719-7.660157 4.480469-11.292969 1.878906-3.636719-2.597656-4.480469-7.65625-1.878907-11.292968 10.011719-14.007813 26.257813-22.375 43.457032-22.375 17.199218 0 33.449218 8.367187 43.460937 22.375 2.601563 3.636718 1.757813 8.695312-1.878906 11.292968-1.425781 1.019532-3.070313 1.511719-4.699219 1.511719zm0 0" fill="#ff4a4a"/><g fill="#5c546a"><path d="m88.171875 96.539062c0 9.535157-7.734375 17.269532-17.269531 17.269532-9.539063 0-17.269532-7.734375-17.269532-17.269532 0-9.539062 7.730469-17.269531 17.269532-17.269531 9.535156 0 17.269531 7.730469 17.269531 17.269531zm0 0"/><path d="m172.1875 96.539062c0 9.535157-7.734375 17.269532-17.269531 17.269532-9.539063 0-17.269531-7.734375-17.269531-17.269532 0-9.539062 7.730468-17.269531 17.269531-17.269531 9.535156 0 17.269531 7.730469 17.269531 17.269531zm0 0"/><path d="m88.171875 377.453125c0 9.535156-7.734375 17.269531-17.269531 17.269531-9.539063 0-17.269532-7.734375-17.269532-17.269531 0-9.539063 7.730469-17.269531 17.269532-17.269531 9.535156 0 17.269531 7.730468 17.269531 17.269531zm0 0"/><path d="m172.1875 377.453125c0 9.535156-7.734375 17.269531-17.269531 17.269531-9.539063 0-17.269531-7.734375-17.269531-17.269531 0-9.539063 7.730468-17.269531 17.269531-17.269531 9.535156 0 17.269531 7.730468 17.269531 17.269531zm0 0"/></g></svg>