<svg height="512pt" viewBox="0 -87 512 512" width="512pt" xmlns="http://www.w3.org/2000/svg"><path d="m489.789062 45.722656v275.222656c0 1.492188-.191406 2.9375-.542968 4.320313-1.917969 7.546875-8.761719 13.132813-16.902344 13.132813h-431.472656c-8.152344 0-14.984375-5.585938-16.898438-13.132813-.351562-1.382813-.542968-2.828125-.542968-4.320313v-275.222656c0-9.632812 7.800781-17.445312 17.441406-17.445312h431.472656c9.632812 0 17.445312 7.8125 17.445312 17.445312zm0 0" fill="#d7deed"/><path d="m489.789062 32.597656v288.347656c0 1.488282-.191406 2.9375-.542968 4.320313h-465.273438c-.351562-1.382813-.542968-2.832031-.542968-4.320313v-288.347656c0-9.644531 7.800781-17.453125 17.441406-17.453125h431.472656c9.632812 0 17.445312 7.8125 17.445312 17.453125zm0 0" fill="#c7cfe2"/><path d="m495.609375 310.121094h-479.21875c-9.050781 0-16.390625-7.339844-16.390625-16.390625v-277.339844c0-9.050781 7.339844-16.390625 16.390625-16.390625h479.21875c9.050781 0 16.390625 7.339844 16.390625 16.390625v277.339844c0 9.050781-7.339844 16.390625-16.390625 16.390625zm0 0" fill="#eff2fa"/><path d="m494.554688 0h-57.355469c9.632812 0 17.445312 7.8125 17.445312 17.445312v275.230469c0 9.636719-7.8125 17.445313-17.445312 17.445313h57.355469c9.632812 0 17.445312-7.808594 17.445312-17.445313v-275.230469c0-9.632812-7.8125-17.445312-17.445312-17.445312zm0 0" fill="#d7deed"/><path d="m176.578125 272.117188h-125.34375c-6.179687 0-11.1875-5.007813-11.1875-11.1875v-125.347657c0-6.175781 5.007813-11.1875 11.1875-11.1875h125.34375c6.179687 0 11.1875 5.007813 11.1875 11.1875v125.347657c0 6.179687-5.007813 11.1875-11.1875 11.1875zm0 0" fill="#fff"/><path d="m149.960938 272.117188h-74.484376v-27.539063c0-7.992187 6.484376-14.472656 14.476563-14.472656h45.53125c7.992187 0 14.472656 6.480469 14.472656 14.472656v27.539063zm0 0" fill="#3a85dd"/><path d="m134.742188 176.234375c0 12.160156-9.859376 22.023437-22.023438 22.023437s-22.023438-9.863281-22.023438-22.023437c0-12.164063 9.859376-22.023437 22.023438-22.023437s22.023438 9.859374 22.023438 22.023437zm0 0" fill="#fdd7bd"/><g fill="#acb8d1"><path d="m471.660156 138.667969h-243.648437c-4.40625 0-7.980469-3.574219-7.980469-7.984375 0-4.40625 3.574219-7.980469 7.980469-7.980469h243.648437c4.40625 0 7.980469 3.574219 7.980469 7.980469 0 4.410156-3.574219 7.984375-7.980469 7.984375zm0 0"/><path d="m385.816406 174.675781h-157.804687c-4.40625 0-7.980469-3.574219-7.980469-7.980469 0-4.410156 3.574219-7.984374 7.980469-7.984374h157.804687c4.40625 0 7.980469 3.574218 7.980469 7.984374 0 4.40625-3.574219 7.980469-7.980469 7.980469zm0 0"/><path d="m291.289062 210.121094h-63.277343c-4.410157 0-7.984375-3.574219-7.984375-7.984375 0-4.40625 3.574218-7.980469 7.984375-7.980469h63.277343c4.410157 0 7.984376 3.574219 7.984376 7.980469 0 4.410156-3.574219 7.984375-7.984376 7.984375zm0 0"/></g><path d="m458.550781 69.324219h-410.6875c-7.242187 0-13.113281-5.871094-13.113281-13.109375v-3.433594c0-7.242188 5.871094-13.113281 13.113281-13.113281h410.6875c7.238281 0 13.109375 5.871093 13.109375 13.113281v3.433594c0 7.238281-5.871094 13.109375-13.109375 13.109375zm0 0" fill="#c7cfe2"/><path d="m478.550781 235.996094c-1.941406-3.410156-7.488281-5.453125-10.917969-2.863282-7.789062 5.878907-18.152343 14.195313-28.484374 10.480469-5.125-1.84375-9.753907-3.277343-14.945313-.429687-1.277344.703125-2.515625 1.535156-3.722656 2.445312-.851563-5.773437-6.332031-9.550781-11.949219-6.523437-3.894531 2.101562-7.902344 3.816406-12.082031 5.136719 2.71875-7.46875 3.671875-16.46875.554687-23.90625-3.832031-9.160157-14.105468-12.375-22.882812-8.015626-7.726563 3.84375-14.238282 13.261719-17.316406 21.125-3.242188 8.277344-1.558594 17.191407 5.195312 23.207032.730469.652344 1.496094 1.234375 2.28125 1.78125-5.507812 3.496094-11.558594 6.242187-17.453125 8.820312-3.980469 1.742188-4.816406 7.488282-2.863281 10.921875 2.332031 4.101563 6.992187 4.582031 10.917968 2.863281 10.414063-4.558593 20.761719-10.082031 28.882813-17.816406 7.460937-.386718 15.214844-2.570312 22.136719-5.332031.148437 1.328125.292968 2.660156.441406 3.992187.773438 6.933594 8.128906 10.453126 13.628906 5.644532 2.394532-2.097656 4.792969-4.191406 7.1875-6.285156 1.066406-.933594 2.121094-1.875 3.195313-2.792969 1.324219-1.132813-.347657-1.25 1.699219-.617188 5.027343 1.5625 9.382812 3.152344 14.789062 2.628907 10.902344-1.066407 20.308594-7.097657 28.84375-13.542969 3.46875-2.617188 5.175781-6.859375 2.863281-10.921875zm-106.371093 1.984375c1.746093-3.625 5.433593-10.027344 9.425781-11.546875.222656-.085938.5-.136719.769531-.132813-.398438.121094.265625 1.148438.386719 1.886719.394531 2.4375.175781 4.996094-.347657 7.394531-.875 4.039063-2.742187 7.886719-5.191406 11.242188-.578125-.125-1.144531-.273438-1.691406-.46875-4.226562-1.503907-5.316406-4.300781-3.351562-8.375zm0 0" fill="#4f495b"/></svg>