<svg height="512pt" viewBox="-93 0 512 512" width="512pt" xmlns="http://www.w3.org/2000/svg"><path d="m0 20.535156v183.253906c0 11.34375 9.195312 20.535157 20.535156 20.535157h95.277344c3.351562 0 6.570312 1.332031 8.9375 3.703125l30.0625 30.0625c4.9375 4.9375 12.941406 4.9375 17.875 0l30.0625-30.0625c2.371094-2.371094 5.585938-3.703125 8.9375-3.703125h92.960938c11.34375 0 20.539062-9.191407 20.539062-20.535157v-183.253906c0-11.339844-9.195312-20.535156-20.535156-20.535156h-284.117188c-11.339844 0-20.535156 9.195312-20.535156 20.535156zm0 0" fill="#2fa39b"/><path d="m160.992188 228.027344-18.121094 18.121094 11.941406 11.945312c4.9375 4.933594 12.941406 4.933594 17.875 0l30.0625-30.066406c2.371094-2.367188 5.585938-3.699219 8.9375-3.699219h-41.757812c-3.351563 0-6.566407 1.328125-8.9375 3.699219zm0 0" fill="#29998b"/><path d="m304.652344 0h-41.761719c11.34375 0 20.539063 9.195312 20.539063 20.535156v183.253906c0 11.34375-9.195313 20.535157-20.539063 20.535157h41.761719c11.339844 0 20.535156-9.191407 20.535156-20.535157v-183.253906c0-11.339844-9.195312-20.535156-20.535156-20.535156zm0 0" fill="#29998b"/><path d="m138.933594 166.539062c-4.34375 0-8.511719-1.722656-11.585938-4.796874l-34.78125-34.78125c-6.398437-6.398438-6.398437-16.773438 0-23.175782 6.402344-6.398437 16.777344-6.398437 23.175782 0l23.191406 23.195313 64.335937-64.335938c6.398438-6.402343 16.773438-6.402343 23.171875 0 6.402344 6.398438 6.402344 16.773438 0 23.175781l-75.921875 75.921876c-3.070312 3.074218-7.238281 4.796874-11.585937 4.796874zm0 0" fill="#cafff0"/><path d="m246.738281 333.242188v93.640624c0 9.191407-3.050781 18.125-8.671875 25.40625-5.625 7.277344-8.675781 16.214844-8.675781 25.40625v16.988282c-20.808594 11.058594-44.550781 17.316406-69.753906 17.316406-15.640625 0-30.710938-2.40625-44.867188-6.878906v-7.5l-.804687-24.382813c-.925782-5.808593-2.652344-11.445312-5.132813-16.75-2.480469-5.308593-5.703125-10.285156-9.621093-14.761719-10.03125-11.476562-15.558594-26.195312-15.558594-41.433593v-63.898438c0-12.320312 4.511718-24.195312 12.65625-33.386719.53125-.605468 1.085937-1.203124 1.65625-1.785156l9.84375-10.105468.160156-.160157v-113.964843c0-8.5625 6.945312-15.507813 15.507812-15.507813 8.410157 0 15.285157 6.6875 15.507813 15.089844l1.042969 38.84375 1.714844 63.761719c.097656-1.4375.421874-2.976563.917968-4.503907 1.101563-3.40625 3.042969-6.753906 5.085938-8.796875 1.832031-1.835937 4.078125-3.261718 6.578125-4.128906 1.78125-.617188 3.691406-.953125 5.683593-.953125 9.578126 0 17.34375 7.765625 17.34375 17.34375v25.171875c0-4.789062 1.941407-9.125 5.085938-12.265625 1.832031-1.832031 4.078125-3.253906 6.578125-4.117187 1.78125-.625 3.691406-.960938 5.683594-.960938 9.574219 0 17.34375 7.761719 17.34375 17.34375v29.929688c0-7.585938 4.875-14.03125 11.664062-16.390626 1.78125-.617187 3.691407-.953124 5.683594-.953124 9.585937 0 17.347656 7.769531 17.347656 17.34375zm0 0" fill="#fdd7bd"/><g fill="#fac5aa"><path d="m223.710938 316.855469v58.089843c0 6.441407-5.226563 11.664063-11.664063 11.664063v-53.367187c0-7.585938 4.871094-14.03125 11.664063-16.386719zm0 0"/><path d="m189.015625 286.933594v62.847656c0 6.441406-5.222656 11.664062-11.664063 11.664062v-58.128906c0-4.792968 1.941407-9.125 5.085938-12.269531 1.832031-1.832031 4.078125-3.253906 6.578125-4.113281zm0 0"/><path d="m154.324219 261.753906v53.160156c0 6.441407-5.222657 11.65625-11.664063 11.65625v-51.894531c1.101563-3.40625 3.042969-6.753906 5.085938-8.796875 1.832031-1.835937 4.078125-3.257812 6.578125-4.125zm0 0"/><path d="m107.96875 291.339844v65.167968c-6.441406 0-11.664062-5.226562-11.664062-11.664062v-41.835938c.535156-.605468 1.089843-1.203124 1.65625-1.785156l9.847656-10.105468zm0 0"/></g></svg>