<svg height="512pt" viewBox="-3 0 512 512" width="512pt" xmlns="http://www.w3.org/2000/svg"><path d="m356.152344 318.792969h-205.347656v-221.988281c0-53.464844 43.339843-96.804688 96.800781-96.804688h11.742187c53.464844 0 96.804688 43.339844 96.804688 96.804688zm0 0" fill="#5c546a"/><path d="m253.476562 0c-7.789062 0-15.375.871094-22.667968 2.515625 45.796875 10.324219 82.902344 58.113281 82.902344 107.027344l-162.90625 30.070312v179.175781h205.347656v-216.113281c0-56.707031-45.96875-102.675781-102.675782-102.675781zm0 0" fill="#4f495b"/><path d="m181.570312 160.605469h-6.699218c-13.292969 0-24.066406-10.777344-24.066406-24.070313v-2.917968c0-13.292969 10.773437-24.070313 24.066406-24.070313h6.699218zm0 0" fill="#fac5aa"/><path d="m325.382812 160.605469h6.699219c13.292969 0 24.070313-10.777344 24.070313-24.070313v-2.917968c0-13.292969-10.777344-24.070313-24.070313-24.070313h-6.699219zm0 0" fill="#fac5aa"/><path d="m422.585938 422.550781h-339.636719c-9.308594 0-16.128907-8.765625-13.84375-17.789062l15.765625-62.222657c4.765625-18.804687 18.480468-34.058593 36.679687-40.777343l114.957031-42.464844c10.492188-3.875 22.023438-3.875 32.515626 0l114.960937 42.464844c18.195313 6.722656 31.914063 21.972656 36.675781 40.777343l15.765625 62.222657c2.285157 9.023437-4.535156 17.789062-13.839843 17.789062zm0 0" fill="#fbb0ff"/><path d="m436.425781 404.761719-15.765625-62.222657c-4.761718-18.804687-18.480468-34.058593-36.675781-40.777343l-114.960937-42.464844c-10.492188-3.875-22.023438-3.875-32.515626 0l-5.292968 1.957031 109.664062 40.507813c18.195313 6.722656 31.914063 21.972656 36.679688 40.777343l15.761718 62.226563c2.285157 9.019531-4.535156 17.785156-13.839843 17.785156h43.105469c9.304687 0 16.125-8.765625 13.839843-17.789062zm0 0" fill="#ff9cea"/><path d="m208.136719 269.773438-31.253907 11.546874 38.132813 37.921876c2.949219 2.933593 7.664063 3.082031 10.789063.34375l26.960937-23.617188zm0 0" fill="#ff7bca"/><path d="m297.007812 269.632812 31.644532 11.6875-39.320313 37.972657c-3.003906 2.902343-7.742187 2.96875-10.824219.15625l-25.742187-23.480469zm0 0" fill="#ff7bca"/><path d="m252.765625 408.605469c-3.605469 0-6.527344-2.921875-6.527344-6.527344v-76.320313c0-3.605468 2.921875-6.53125 6.527344-6.53125s6.53125 2.925782 6.53125 6.53125v76.320313c0 3.605469-2.925781 6.527344-6.53125 6.527344zm0 0" fill="#ff7bca"/><path d="m297.007812 269.632812v-49.535156h-88.871093v49.675782l44.628906 26.195312zm0 0" fill="#fabaa1"/><path d="m310.148438 109.542969c-12.449219-.679688-32.960938-3.394531-55.515626-14.320313-17.371093-8.414062-29.992187-18.808594-38.316406-26.960937-1.230468-1.207031-3.300781-.632813-3.730468 1.035156-1.6875 6.574219-5.828126 17.734375-16.152344 27.195313-9.613282 8.808593-19.953125 11.894531-25.039063 13.050781l6.503907 85.0625c1.785156 16.890625 13.136718 31.253906 29.164062 36.878906l30.914062 10.839844c9.253907 3.246093 19.316407 3.308593 28.605469.164062l33.117188-11.167969c16.289062-5.503906 27.882812-20.023437 29.652343-37.140624l6.351563-84.636719zm0 0" fill="#fdd7bd"/><path d="m232.632812 95.222656c22.558594 10.925782 43.066407 13.640625 55.515626 14.320313h22c-12.449219-.679688-32.960938-3.394531-55.515626-14.320313-17.371093-8.414062-29.992187-18.808594-38.316406-26.960937-1.230468-1.207031-3.300781-.632813-3.730468 1.035156-.761719 2.964844-2.03125 6.867187-4.132813 11.125 6.707031 5.066406 14.738281 10.226563 24.179687 14.800781zm0 0" fill="#fac5aa"/><path d="m313.710938 109.542969-9.761719 98.054687c-1.058594 10.234375-5.632813 19.539063-12.621094 26.542969l8.371094-2.820313c16.289062-5.503906 27.886719-20.023437 29.652343-37.140624l6.355469-84.636719zm0 0" fill="#fac5aa"/><g fill="#5c546a"><path d="m224.902344 135.570312c0 4.210938-3.414063 7.621094-7.621094 7.621094s-7.621094-3.410156-7.621094-7.621094c0-4.207031 3.414063-7.621093 7.621094-7.621093s7.621094 3.414062 7.621094 7.621093zm0 0"/><path d="m292.5625 135.570312c0 4.210938-3.410156 7.621094-7.617188 7.621094-4.210937 0-7.621093-3.410156-7.621093-7.621094 0-4.207031 3.410156-7.621093 7.621093-7.621093 4.207032 0 7.617188 3.414062 7.617188 7.621093zm0 0"/><path d="m281.097656 190.839844c-1.957031-3.03125-5.996094-3.902344-9.027344-1.949219-4.96875 3.199219-10.476562 5.085937-16 5.527344l-5.023437.011719c-6.808594-.542969-12.351563-3.164063-15.996094-5.476563-3.042969-1.929687-7.078125-1.03125-9.011719 2.015625-1.929687 3.046875-1.027343 7.078125 2.015626 9.011719 5.570312 3.535156 14.402343 7.617187 25.484374 7.617187.621094 0 1.253907-.015625 1.886719-.042968 8.242188-.339844 16.441407-3 23.71875-7.6875 3.03125-1.953126 3.90625-5.996094 1.953125-9.027344zm0 0"/></g><path d="m63.023438 357.417969c-4.34375 0-7.867188-3.519531-7.867188-7.867188v-41.765625c0-9.78125 4.417969-18.847656 12.117188-24.878906l52.722656-42.078125c3.398437-2.714844 8.347656-2.15625 11.058594 1.238281 2.710937 3.398438 2.15625 8.347656-1.238282 11.058594l-52.78125 42.128906c-3.925781 3.070313-6.140625 7.621094-6.140625 12.53125v41.765625c0 4.347657-3.523437 7.867188-7.871093 7.867188zm0 0" fill="#868491"/><path d="m493.214844 456.097656h-481.285156c-6.589844 0-11.929688-5.34375-11.929688-11.933594v-49.386718c0-6.589844 5.34375-11.929688 11.929688-11.929688h481.285156c6.589844 0 11.929687 5.339844 11.929687 11.929688v49.386718c0 6.589844-5.339843 11.933594-11.929687 11.933594zm0 0" fill="#e6be94"/><path d="m41.566406 512v-55.84375h422.007813v55.84375" fill="#f7cda9"/><path d="m41.566406 456.15625v27.921875h367.183594c15.421875 0 27.921875 12.5 27.921875 27.921875h26.90625v-55.84375zm0 0" fill="#ddb08c"/><path d="m89.253906 382.84375h-52.457031v-21.496094c0-6.515625 5.28125-11.796875 11.796875-11.796875h28.863281c6.515625 0 11.796875 5.28125 11.796875 11.796875zm0 0" fill="#5c546a"/><path d="m125.285156 247.472656-.757812-.988281c-4.25-5.550781-3.195313-13.492187 2.355468-17.742187l13.78125-10.550782c5.546876-4.25 13.492188-3.195312 17.738282 2.355469l.757812.984375c4.25 5.550781 3.195313 13.492188-2.355468 17.742188l-13.78125 10.550781c-5.546876 4.25-13.492188 3.195312-17.738282-2.351563zm0 0" fill="#5c546a"/></svg>