<svg height="512pt" viewBox="0 -34 512 512" width="512pt" xmlns="http://www.w3.org/2000/svg"><path d="m504.910156 126.824219v292.308593c0 13.972657-11.324218 25.308594-25.3125 25.308594h-447.195312c-13.988282 0-25.3125-11.335937-25.3125-25.308594v-292.308593zm0 0" fill="#996459"/><path d="m504.910156 126.824219v98.644531c-1.433594 1.324219-3.046875 2.476562-4.832031 3.410156-45.351563 23.621094-129.484375 58.941406-239.804687 59.828125-114.847657.929688-202.390626-35.898437-248.351563-59.828125-1.785156-.933594-3.398437-2.074218-4.828125-3.398437v-98.652344h497.816406zm0 0" fill="#8c5851"/><path d="m463.808594 409.199219h-415.617188c-4.148437 0-7.511718-3.363281-7.511718-7.515625v-271.105469c0-2.074219 1.679687-3.753906 3.75-3.753906h423.136718c2.074219 0 3.753906 1.679687 3.753906 3.753906v271.109375c0 4.148438-3.363281 7.511719-7.511718 7.511719zm0 0" fill="#e6be94"/><path d="m40.679688 130.835938v111.910156c49.582031 22.089844 125.398437 46.722656 219.59375 45.960937 90.113281-.726562 162.742187-24.421875 211.046874-45.953125v-111.917968c0-2.210938-1.789062-4.003907-4-4.007813h-422.644531c-2.207031.003906-3.996093 1.796875-3.996093 4.007813zm0 0" fill="#ddb08c"/><path d="m266.09375 314.144531h-20.1875c-8.464844 0-15.324219-6.859375-15.324219-15.324219v-35.511718h50.835938v35.511718c0 8.464844-6.859375 15.324219-15.324219 15.324219zm0 0" fill="#5c546a"/><path d="m512 183.796875c0 8.265625-4.585938 15.84375-11.914062 19.660156-45.355469 23.621094-129.488282 58.941407-239.8125 59.835938-114.851563.929687-202.398438-35.90625-248.351563-59.832031-7.332031-3.820313-11.921875-11.398438-11.921875-19.664063v-83.648437c0-13.980469 11.332031-25.3125 25.3125-25.3125h461.375c13.980469 0 25.3125 11.332031 25.3125 25.3125zm0 0" fill="#f7cda9"/><path d="m322.921875 0h-133.84375c-14.375 0-26.027344 11.652344-26.027344 26.023438v58.8125h31.515625v-49.621094c0-2.847656 2.308594-5.160156 5.160156-5.160156h112.546876c2.851562 0 5.160156 2.3125 5.160156 5.160156v49.621094h31.515625v-58.8125c0-14.371094-11.652344-26.023438-26.027344-26.023438zm0 0" fill="#5c546a"/><path d="m512 183.796875c0 8.265625-4.585938 15.84375-11.914062 19.660156-45.355469 23.621094-129.488282 58.941407-239.8125 59.835938-114.851563.929687-202.398438-35.90625-248.351563-59.832031-7.332031-3.820313-11.921875-11.398438-11.921875-19.664063v-83.648437c0-13.980469 11.332031-25.3125 25.3125-25.3125h461.375c13.980469 0 25.3125 11.332031 25.3125 25.3125zm0 0" fill="#f7cda9"/><path d="m299.6875 159.777344h-87.378906c-4.425782 0-8.011719-3.585938-8.011719-8.011719s3.585937-8.011719 8.011719-8.011719h87.378906c4.425781 0 8.015625 3.585938 8.015625 8.011719s-3.589844 8.011719-8.015625 8.011719zm0 0" fill="#996459"/></svg>