<svg height="512pt" viewBox="-33 0 512 512" width="512pt" xmlns="http://www.w3.org/2000/svg"><path d="m348.347656 386.277344h-248.816406v-268.339844c0-65.132812 52.800781-117.9375 117.9375-117.9375h12.941406c65.136719 0 117.9375 52.804688 117.9375 117.9375zm0 0" fill="#5c546a"/><path d="m223.941406 0c-9.441406 0-18.632812 1.058594-27.472656 3.050781 55.492188 12.503907 100.453125 70.414063 100.453125 129.683594l-197.390625 36.433594v217.109375h248.816406v-261.867188c0-68.710937-55.699218-124.410156-124.40625-124.410156zm0 0" fill="#4f495b"/><path d="m136.8125 194.601562h-13.167969c-13.320312 0-24.113281-10.792968-24.113281-24.113281v-13.636719c0-13.320312 10.792969-24.113281 24.113281-24.113281h13.167969zm0 0" fill="#fac5aa"/><path d="m311.066406 194.601562h13.167969c13.316406 0 24.113281-10.792968 24.113281-24.113281v-13.636719c0-13.320312-10.796875-24.113281-24.113281-24.113281h-13.167969zm0 0" fill="#fac5aa"/><path d="m428.84375 512h-411.53125c-11.28125 0-19.542969-10.617188-16.773438-21.550781l19.101563-75.398438c5.769531-22.785156 22.394531-41.265625 44.441406-49.410156l139.292969-51.453125c12.714844-4.699219 26.6875-4.699219 39.402344 0l139.292968 51.453125c22.050782 8.144531 38.671876 26.625 44.445313 49.410156l19.101563 75.398438c2.769531 10.933593-5.492188 21.550781-16.773438 21.550781zm0 0" fill="#fbb0ff"/><path d="m445.617188 490.449219-19.101563-75.398438c-5.773437-22.785156-22.394531-41.265625-44.441406-49.410156l-139.296875-51.453125c-12.714844-4.699219-26.6875-4.699219-39.402344 0l-6.414062 2.367188 132.882812 49.085937c22.046875 8.144531 38.667969 26.625 44.441406 49.410156l19.101563 75.398438c2.769531 10.933593-5.492188 21.550781-16.773438 21.550781h52.230469c11.277344 0 19.542969-10.617188 16.773438-21.550781zm0 0" fill="#ff9cea"/><path d="m169 326.882812-37.871094 13.992188 46.207032 45.953125c3.570312 3.550781 9.285156 3.730469 13.074218.414063l32.667969-28.617188zm0 0" fill="#ff7bca"/><path d="m276.683594 326.710938 38.34375 14.164062-47.644532 46.011719c-3.636718 3.511719-9.378906 3.59375-13.117187.1875l-31.1875-28.449219zm0 0" fill="#ff7bca"/><path d="m223.078125 495.105469c-4.371094 0-7.910156-3.542969-7.910156-7.910157v-92.476562c0-4.371094 3.539062-7.914062 7.910156-7.914062s7.910156 3.542968 7.910156 7.914062v92.476562c0 4.367188-3.542969 7.910157-7.910156 7.910157zm0 0" fill="#ff7bca"/><path d="m276.683594 326.710938v-60.019532h-107.683594v60.191406l54.078125 31.742188zm0 0" fill="#fabaa1"/><path d="m292.605469 132.734375c-15.085938-.824219-39.9375-4.117187-67.269531-17.351563-21.046876-10.195312-36.335938-22.792968-46.425782-32.671874-1.492187-1.457032-4-.765626-4.515625 1.253906-2.050781 7.96875-7.0625 21.488281-19.574219 32.953125-11.648437 10.671875-24.175781 14.414062-30.339843 15.816406l7.882812 103.070313c2.160157 20.464843 15.917969 37.871093 35.335938 44.683593l37.457031 13.132813c11.214844 3.9375 23.410156 4.011718 34.664062.203125l40.128907-13.535157c19.734375-6.667968 33.785156-24.261718 35.925781-45l7.703125-102.554687zm0 0" fill="#fdd7bd"/><path d="m198.683594 115.382812c27.332031 13.238282 52.183594 16.527344 67.269531 17.351563h26.652344c-15.082031-.824219-39.9375-4.117187-67.269531-17.351563-21.046876-10.195312-36.335938-22.792968-46.425782-32.671874-1.492187-1.457032-3.996094-.765626-4.515625 1.253906-.925781 3.59375-2.460937 8.324218-5.011719 13.480468 8.128907 6.140626 17.855469 12.394532 29.300782 17.9375zm0 0" fill="#fac5aa"/><path d="m296.921875 132.734375-11.828125 118.808594c-1.277344 12.402343-6.820312 23.675781-15.289062 32.167969l10.140624-3.421876c19.738282-6.667968 33.789063-24.261718 35.929688-45.003906l7.699219-102.550781zm0 0" fill="#fac5aa"/><g fill="#5c546a"><path d="m189.3125 164.269531c0 5.101563-4.132812 9.234375-9.230469 9.234375-5.101562 0-9.234375-4.132812-9.234375-9.234375 0-5.097656 4.132813-9.230469 9.234375-9.230469 5.097657 0 9.230469 4.132813 9.230469 9.230469zm0 0"/><path d="m271.300781 164.269531c0 5.101563-4.136719 9.234375-9.234375 9.234375s-9.234375-4.132812-9.234375-9.234375c0-5.097656 4.136719-9.230469 9.234375-9.230469s9.234375 4.132813 9.234375 9.230469zm0 0"/><path d="m257.40625 231.242188c-2.367188-3.675782-7.261719-4.730469-10.9375-2.367188-6.019531 3.878906-12.695312 6.164062-19.390625 6.699219l-6.085937.011719c-8.246094-.652344-14.964844-3.832032-19.378907-6.632813-3.6875-2.339844-8.574219-1.25-10.917969 2.441406-2.339843 3.691407-1.246093 8.578125 2.441407 10.921875 6.746093 4.28125 17.449219 9.226563 30.882812 9.226563.753907 0 1.515625-.015625 2.28125-.050781 9.988281-.414063 19.925781-3.636719 28.738281-9.316407 3.671876-2.367187 4.730469-7.261719 2.367188-10.933593zm0 0"/></g></svg>